<?xml version="1.0" encoding="UTF-8" standalone="no"?>
<!-- Created with Inkscape (http://www.inkscape.org/) -->

<svg
   xmlns:dc="http://purl.org/dc/elements/1.1/"
   xmlns:cc="http://creativecommons.org/ns#"
   xmlns:rdf="http://www.w3.org/1999/02/22-rdf-syntax-ns#"
   xmlns:svg="http://www.w3.org/2000/svg"
   xmlns="http://www.w3.org/2000/svg"
   xmlns:sodipodi="http://sodipodi.sourceforge.net/DTD/sodipodi-0.dtd"
   xmlns:inkscape="http://www.inkscape.org/namespaces/inkscape"
   id="svg3202"
   version="1.1"
   inkscape:version="0.48.3.1 r9886"
   width="625"
   height="500"
   xml:space="preserve"
   sodipodi:docname="barroso-f1.pdf"><metadata
     id="metadata3208"><rdf:RDF><cc:Work
         rdf:about=""><dc:format>image/svg+xml</dc:format><dc:type
           rdf:resource="http://purl.org/dc/dcmitype/StillImage" /><dc:title></dc:title></cc:Work></rdf:RDF></metadata><defs
     id="defs3206"><clipPath
       clipPathUnits="userSpaceOnUse"
       id="clipPath3218"><path
         d="M 0,0 500,0 500,400 0,400 0,0 z"
         id="path3220" /></clipPath><clipPath
       clipPathUnits="userSpaceOnUse"
       id="clipPath3236"><path
         d="M 0,0 500,0 500,400 0,400 0,0 z"
         id="path3238" /></clipPath><clipPath
       clipPathUnits="userSpaceOnUse"
       id="clipPath3378"><path
         d="m 43.29,77.87 444.71,0 0,287.99 -444.71,0 0,-287.99 z"
         id="path3380" /></clipPath></defs><sodipodi:namedview
     pagecolor="#ffffff"
     bordercolor="#666666"
     borderopacity="1"
     objecttolerance="10"
     gridtolerance="10"
     guidetolerance="10"
     inkscape:pageopacity="0"
     inkscape:pageshadow="2"
     inkscape:window-width="640"
     inkscape:window-height="480"
     id="namedview3204"
     showgrid="false"
     inkscape:zoom="0.472"
     inkscape:cx="312.5"
     inkscape:cy="250"
     inkscape:window-x="0"
     inkscape:window-y="24"
     inkscape:window-maximized="0"
     inkscape:current-layer="g3210" /><g
     id="g3210"
     inkscape:groupmode="layer"
     inkscape:label="barroso-f1"
     transform="matrix(1.25,0,0,-1.25,0,500)"><path
       d="M 0,0 500,0 500,400 0,400 0,0 z"
       style="fill:#ffffff;fill-opacity:1;fill-rule:nonzero;stroke:none"
       id="path3212" /><g
       id="g3214"><g
         id="g3216"
         clip-path="url(#clipPath3218)"><text
           transform="matrix(1,0,0,-1,194.7798,378.9902)"
           id="text3222"><tspan
             style="fill:#808080;fill-opacity:1;fill-rule:nonzero;stroke:none;font-family:Helvetica;font-variant:normal;font-weight:bold;font-stretch:normal;font-size:20;writing-mode:lr;-inkscape-font-specification:Helvetica-Bold"
             x="0 12.82 24.52 32.88 41.24 54.06 65.76 78.58 85.82 91.98 99.22"
             y="0"
             sodipodi:role="line"
             id="tspan3224">barroso: f1</tspan></text>
</g></g><path
       d="m 135.16,23.48 229.68,0 0,-22.48 -229.68,0 0,22.48 z"
       style="fill:#ffffff;fill-opacity:1;fill-rule:nonzero;stroke:none"
       id="path3226" /><g
       id="g3228"
       transform="translate(135.6602,22.9805)"><path
         d="M 0,0 228.68,0"
         style="fill:none;stroke:#000000;stroke-opacity:1;stroke-width:1;stroke-linecap:square;stroke-linejoin:miter;stroke-miterlimit:10;stroke-dasharray:none"
         id="path3230" /></g><g
       id="g3232"><g
         id="g3234"
         clip-path="url(#clipPath3236)"><g
           id="g3240"
           transform="translate(135.6602,1.5)"><path
             d="M 0,0 228.68,0"
             style="fill:none;stroke:#000000;stroke-opacity:1;stroke-width:1;stroke-linecap:square;stroke-linejoin:miter;stroke-miterlimit:10;stroke-dasharray:none"
             id="path3242" /></g><g
           id="g3244"
           transform="translate(135.6602,1.5)"><path
             d="M 0,0 0,21.48"
             style="fill:none;stroke:#000000;stroke-opacity:1;stroke-width:1;stroke-linecap:square;stroke-linejoin:miter;stroke-miterlimit:10;stroke-dasharray:none"
             id="path3246" /></g><g
           id="g3248"
           transform="translate(364.3398,1.5)"><path
             d="M 0,0 0,21.48"
             style="fill:none;stroke:#000000;stroke-opacity:1;stroke-width:1;stroke-linecap:square;stroke-linejoin:miter;stroke-miterlimit:10;stroke-dasharray:none"
             id="path3250" /></g></g></g><path
       d="m 139.16,16.24 8,0 0,-8 -8,0 0,8 z"
       style="fill:#ff5555;fill-opacity:1;fill-rule:nonzero;stroke:none"
       id="path3252" /><text
       transform="matrix(1,0,0,-1,151.1602,7.4805)"
       id="text3254"><tspan
         style="fill:#404040;fill-opacity:1;fill-rule:nonzero;stroke:none;font-family:Helvetica;font-variant:normal;font-weight:normal;font-stretch:normal;font-size:12;writing-mode:lr;-inkscape-font-specification:Helvetica"
         x="0 6.444 12.888 18.672 25.116 27.552 29.988 36.432"
         y="0"
         sodipodi:role="line"
         id="tspan3256">baseline</tspan></text>
<path
       d="m 200.25,16.24 8,0 0,-8 -8,0 0,8 z"
       style="fill:#5555ff;fill-opacity:1;fill-rule:nonzero;stroke:none"
       id="path3258" /><text
       transform="matrix(1,0,0,-1,212.25,7.4805)"
       id="text3260"><tspan
         style="fill:#404040;fill-opacity:1;fill-rule:nonzero;stroke:none;font-family:Helvetica;font-variant:normal;font-weight:normal;font-stretch:normal;font-size:12;writing-mode:lr;-inkscape-font-specification:Helvetica"
         x="0 5.844 8.352 18.192 24.708 27.216"
         y="0"
         sodipodi:role="line"
         id="tspan3262">simple</tspan></text>
<path
       d="m 252.12,16.24 8,0 0,-8 -8,0 0,8 z"
       style="fill:#55ff55;fill-opacity:1;fill-rule:nonzero;stroke:none"
       id="path3264" /><text
       transform="matrix(1,0,0,-1,264.1201,7.4805)"
       id="text3266"><tspan
         style="fill:#404040;fill-opacity:1;fill-rule:nonzero;stroke:none;font-family:Helvetica;font-variant:normal;font-weight:normal;font-stretch:normal;font-size:12;writing-mode:lr;-inkscape-font-specification:Helvetica"
         x="0 5.856 12.384 22.236 28.764 31.284 37.812"
         y="0"
         sodipodi:role="line"
         id="tspan3268">complex</tspan></text>
<path
       d="m 313.88,16.24 8,0 0,-8 -8,0 0,8 z"
       style="fill:#ffff55;fill-opacity:1;fill-rule:nonzero;stroke:none"
       id="path3270" /><text
       transform="matrix(1,0,0,-1,325.8799,7.4805)"
       id="text3272"><tspan
         style="fill:#404040;fill-opacity:1;fill-rule:nonzero;stroke:none;font-family:Helvetica;font-variant:normal;font-weight:normal;font-stretch:normal;font-size:12;writing-mode:lr;-inkscape-font-specification:Helvetica"
         x="0 6.6 13.2 19.8 22.392 28.992"
         y="0"
         sodipodi:role="line"
         id="tspan3274">duplex</tspan></text>
<path
       d="m 43.29,365.86 444.71,0 0,-287.99 -444.71,0 0,287.99 z"
       style="fill:#ebebeb;fill-opacity:1;fill-rule:nonzero;stroke:none"
       id="path3276" /><g
       id="g3278"
       transform="translate(143.3501,73.8701)"><path
         d="M 0,0 0,0"
         style="fill:none;stroke:#808080;stroke-opacity:1;stroke-width:1;stroke-linecap:square;stroke-linejoin:miter;stroke-miterlimit:10;stroke-dasharray:none"
         id="path3280" /></g><g
       id="g3282"
       transform="translate(143.3501,73.8701)"><path
         d="M 0,0 0,-2"
         style="fill:none;stroke:#808080;stroke-opacity:1;stroke-width:1;stroke-linecap:square;stroke-linejoin:miter;stroke-miterlimit:10;stroke-dasharray:none"
         id="path3284" /></g><g
       id="g3286"
       transform="translate(387.9404,73.8701)"><path
         d="M 0,0 0,0"
         style="fill:none;stroke:#808080;stroke-opacity:1;stroke-width:1;stroke-linecap:square;stroke-linejoin:miter;stroke-miterlimit:10;stroke-dasharray:none"
         id="path3288" /></g><g
       id="g3290"
       transform="translate(387.9404,73.8701)"><path
         d="M 0,0 0,-2"
         style="fill:none;stroke:#808080;stroke-opacity:1;stroke-width:1;stroke-linecap:square;stroke-linejoin:miter;stroke-miterlimit:10;stroke-dasharray:none"
         id="path3292" /></g><text
       transform="matrix(1,0,0,-1,120.4399,55.8604)"
       id="text3294"><tspan
         style="fill:#808080;fill-opacity:1;fill-rule:nonzero;stroke:none;font-family:Helvetica;font-variant:normal;font-weight:normal;font-stretch:normal;font-size:12;writing-mode:lr;-inkscape-font-specification:Helvetica"
         x="0 8.448 14.904 17.352 23.808 29.592 36.048 42.504 241.764 245.256 249.408 253.56 260.388 263.208 270.036 276.192 283.02 289.848"
         y="0"
         sodipodi:role="line"
         id="tspan3296">RelevantIrrelevant</tspan></text>
<text
       transform="matrix(1,0,0,-1,201.6401,32.3799)"
       id="text3298"><tspan
         style="fill:#808080;fill-opacity:1;fill-rule:nonzero;stroke:none;font-family:Helvetica;font-variant:normal;font-weight:bold;font-stretch:normal;font-size:14;writing-mode:lr;-inkscape-font-specification:Helvetica-Bold"
         x="0 10.276 19.012 26.964 35.7 48.314 56.266 65.002 69.846 73.92 84.196 88.27 96.222 104.174 112.126 120.078"
         y="0"
         sodipodi:role="line"
         id="tspan3300">Document Classes</tspan></text>
<text
       transform="matrix(1,0,0,-1,16.5498,73.0996)"
       id="text3302"><tspan
         style="fill:#808080;fill-opacity:1;fill-rule:nonzero;stroke:none;font-family:Helvetica;font-variant:normal;font-weight:normal;font-stretch:normal;font-size:12;writing-mode:lr;-inkscape-font-specification:Helvetica"
         x="0 6.696 10.056"
         y="0"
         sodipodi:role="line"
         id="tspan3304">0.0</tspan></text>
<g
       id="g3306"
       transform="translate(37.29,77.8701)"><path
         d="M 0,0 2,0"
         style="fill:none;stroke:#808080;stroke-opacity:1;stroke-width:1;stroke-linecap:square;stroke-linejoin:miter;stroke-miterlimit:10;stroke-dasharray:none"
         id="path3308" /></g><text
       transform="matrix(1,0,0,-1,16.5498,105.4697)"
       id="text3310"><tspan
         style="fill:#808080;fill-opacity:1;fill-rule:nonzero;stroke:none;font-family:Helvetica;font-variant:normal;font-weight:normal;font-stretch:normal;font-size:12;writing-mode:lr;-inkscape-font-specification:Helvetica"
         x="0 6.696 10.056"
         y="0"
         sodipodi:role="line"
         id="tspan3312">0.1</tspan></text>
<g
       id="g3314"
       transform="translate(37.29,110.2402)"><path
         d="M 0,0 2,0"
         style="fill:none;stroke:#808080;stroke-opacity:1;stroke-width:1;stroke-linecap:square;stroke-linejoin:miter;stroke-miterlimit:10;stroke-dasharray:none"
         id="path3316" /></g><text
       transform="matrix(1,0,0,-1,16.5498,137.8398)"
       id="text3318"><tspan
         style="fill:#808080;fill-opacity:1;fill-rule:nonzero;stroke:none;font-family:Helvetica;font-variant:normal;font-weight:normal;font-stretch:normal;font-size:12;writing-mode:lr;-inkscape-font-specification:Helvetica"
         x="0 6.696 10.056"
         y="0"
         sodipodi:role="line"
         id="tspan3320">0.2</tspan></text>
<g
       id="g3322"
       transform="translate(37.29,142.6104)"><path
         d="M 0,0 2,0"
         style="fill:none;stroke:#808080;stroke-opacity:1;stroke-width:1;stroke-linecap:square;stroke-linejoin:miter;stroke-miterlimit:10;stroke-dasharray:none"
         id="path3324" /></g><text
       transform="matrix(1,0,0,-1,16.5498,170.2197)"
       id="text3326"><tspan
         style="fill:#808080;fill-opacity:1;fill-rule:nonzero;stroke:none;font-family:Helvetica;font-variant:normal;font-weight:normal;font-stretch:normal;font-size:12;writing-mode:lr;-inkscape-font-specification:Helvetica"
         x="0 6.696 10.056"
         y="0"
         sodipodi:role="line"
         id="tspan3328">0.3</tspan></text>
<g
       id="g3330"
       transform="translate(37.29,174.9805)"><path
         d="M 0,0 2,0"
         style="fill:none;stroke:#808080;stroke-opacity:1;stroke-width:1;stroke-linecap:square;stroke-linejoin:miter;stroke-miterlimit:10;stroke-dasharray:none"
         id="path3332" /></g><text
       transform="matrix(1,0,0,-1,16.5498,202.5898)"
       id="text3334"><tspan
         style="fill:#808080;fill-opacity:1;fill-rule:nonzero;stroke:none;font-family:Helvetica;font-variant:normal;font-weight:normal;font-stretch:normal;font-size:12;writing-mode:lr;-inkscape-font-specification:Helvetica"
         x="0 6.696 10.056"
         y="0"
         sodipodi:role="line"
         id="tspan3336">0.4</tspan></text>
<g
       id="g3338"
       transform="translate(37.29,207.3501)"><path
         d="M 0,0 2,0"
         style="fill:none;stroke:#808080;stroke-opacity:1;stroke-width:1;stroke-linecap:square;stroke-linejoin:miter;stroke-miterlimit:10;stroke-dasharray:none"
         id="path3340" /></g><text
       transform="matrix(1,0,0,-1,16.5498,234.96)"
       id="text3342"><tspan
         style="fill:#808080;fill-opacity:1;fill-rule:nonzero;stroke:none;font-family:Helvetica;font-variant:normal;font-weight:normal;font-stretch:normal;font-size:12;writing-mode:lr;-inkscape-font-specification:Helvetica"
         x="0 6.696 10.056"
         y="0"
         sodipodi:role="line"
         id="tspan3344">0.5</tspan></text>
<g
       id="g3346"
       transform="translate(37.29,239.7202)"><path
         d="M 0,0 2,0"
         style="fill:none;stroke:#808080;stroke-opacity:1;stroke-width:1;stroke-linecap:square;stroke-linejoin:miter;stroke-miterlimit:10;stroke-dasharray:none"
         id="path3348" /></g><text
       transform="matrix(1,0,0,-1,16.5498,267.3301)"
       id="text3350"><tspan
         style="fill:#808080;fill-opacity:1;fill-rule:nonzero;stroke:none;font-family:Helvetica;font-variant:normal;font-weight:normal;font-stretch:normal;font-size:12;writing-mode:lr;-inkscape-font-specification:Helvetica"
         x="0 6.696 10.056"
         y="0"
         sodipodi:role="line"
         id="tspan3352">0.6</tspan></text>
<g
       id="g3354"
       transform="translate(37.29,272.0898)"><path
         d="M 0,0 2,0"
         style="fill:none;stroke:#808080;stroke-opacity:1;stroke-width:1;stroke-linecap:square;stroke-linejoin:miter;stroke-miterlimit:10;stroke-dasharray:none"
         id="path3356" /></g><text
       transform="matrix(1,0,0,-1,16.5498,299.7002)"
       id="text3358"><tspan
         style="fill:#808080;fill-opacity:1;fill-rule:nonzero;stroke:none;font-family:Helvetica;font-variant:normal;font-weight:normal;font-stretch:normal;font-size:12;writing-mode:lr;-inkscape-font-specification:Helvetica"
         x="0 6.696 10.056"
         y="0"
         sodipodi:role="line"
         id="tspan3360">0.7</tspan></text>
<g
       id="g3362"
       transform="translate(37.29,304.46)"><path
         d="M 0,0 2,0"
         style="fill:none;stroke:#808080;stroke-opacity:1;stroke-width:1;stroke-linecap:square;stroke-linejoin:miter;stroke-miterlimit:10;stroke-dasharray:none"
         id="path3364" /></g><text
       transform="matrix(1,0,0,-1,16.5498,332.0698)"
       id="text3366"><tspan
         style="fill:#808080;fill-opacity:1;fill-rule:nonzero;stroke:none;font-family:Helvetica;font-variant:normal;font-weight:normal;font-stretch:normal;font-size:12;writing-mode:lr;-inkscape-font-specification:Helvetica"
         x="0 6.696 10.056"
         y="0"
         sodipodi:role="line"
         id="tspan3368">0.8</tspan></text>
<g
       id="g3370"
       transform="translate(37.29,336.8301)"><path
         d="M 0,0 2,0"
         style="fill:none;stroke:#808080;stroke-opacity:1;stroke-width:1;stroke-linecap:square;stroke-linejoin:miter;stroke-miterlimit:10;stroke-dasharray:none"
         id="path3372" /></g><g
       id="g3374"><g
         id="g3376"
         clip-path="url(#clipPath3378)"><g
           id="g3382"
           transform="translate(43.29,77.8701)"><path
             d="M 0,0 444.71,0"
             style="fill:none;stroke:#ffffff;stroke-opacity:1;stroke-width:1;stroke-linecap:round;stroke-linejoin:round;stroke-miterlimit:10;stroke-dasharray:1,1;stroke-dashoffset:0"
             id="path3384" /></g><g
           id="g3386"
           transform="translate(43.29,110.2402)"><path
             d="M 0,0 444.71,0"
             style="fill:none;stroke:#ffffff;stroke-opacity:1;stroke-width:1;stroke-linecap:round;stroke-linejoin:round;stroke-miterlimit:10;stroke-dasharray:1,1;stroke-dashoffset:0"
             id="path3388" /></g><g
           id="g3390"
           transform="translate(43.29,142.6104)"><path
             d="M 0,0 444.71,0"
             style="fill:none;stroke:#ffffff;stroke-opacity:1;stroke-width:1;stroke-linecap:round;stroke-linejoin:round;stroke-miterlimit:10;stroke-dasharray:1,1;stroke-dashoffset:0"
             id="path3392" /></g><g
           id="g3394"
           transform="translate(43.29,174.9805)"><path
             d="M 0,0 444.71,0"
             style="fill:none;stroke:#ffffff;stroke-opacity:1;stroke-width:1;stroke-linecap:round;stroke-linejoin:round;stroke-miterlimit:10;stroke-dasharray:1,1;stroke-dashoffset:0"
             id="path3396" /></g><g
           id="g3398"
           transform="translate(43.29,207.3501)"><path
             d="M 0,0 444.71,0"
             style="fill:none;stroke:#ffffff;stroke-opacity:1;stroke-width:1;stroke-linecap:round;stroke-linejoin:round;stroke-miterlimit:10;stroke-dasharray:1,1;stroke-dashoffset:0"
             id="path3400" /></g><g
           id="g3402"
           transform="translate(43.29,239.7202)"><path
             d="M 0,0 444.71,0"
             style="fill:none;stroke:#ffffff;stroke-opacity:1;stroke-width:1;stroke-linecap:round;stroke-linejoin:round;stroke-miterlimit:10;stroke-dasharray:1,1;stroke-dashoffset:0"
             id="path3404" /></g><g
           id="g3406"
           transform="translate(43.29,272.0898)"><path
             d="M 0,0 444.71,0"
             style="fill:none;stroke:#ffffff;stroke-opacity:1;stroke-width:1;stroke-linecap:round;stroke-linejoin:round;stroke-miterlimit:10;stroke-dasharray:1,1;stroke-dashoffset:0"
             id="path3408" /></g><g
           id="g3410"
           transform="translate(43.29,304.46)"><path
             d="M 0,0 444.71,0"
             style="fill:none;stroke:#ffffff;stroke-opacity:1;stroke-width:1;stroke-linecap:round;stroke-linejoin:round;stroke-miterlimit:10;stroke-dasharray:1,1;stroke-dashoffset:0"
             id="path3412" /></g><g
           id="g3414"
           transform="translate(43.29,336.8301)"><path
             d="M 0,0 444.71,0"
             style="fill:none;stroke:#ffffff;stroke-opacity:1;stroke-width:1;stroke-linecap:round;stroke-linejoin:round;stroke-miterlimit:10;stroke-dasharray:1,1;stroke-dashoffset:0"
             id="path3416" /></g></g></g><path
       d="m 65.52,352.15 27.8,0 0,-274.28 -27.8,0 0,274.28 z"
       style="fill:#ff5555;fill-opacity:1;fill-rule:nonzero;stroke:none"
       id="path3418" /><path
       d="m 108.14,351.85 27.79,0 0,-273.98 -27.79,0 0,273.98 z"
       style="fill:#5555ff;fill-opacity:1;fill-rule:nonzero;stroke:none"
       id="path3420" /><path
       d="m 150.76,351.67 27.79,0 0,-273.8 -27.79,0 0,273.8 z"
       style="fill:#55ff55;fill-opacity:1;fill-rule:nonzero;stroke:none"
       id="path3422" /><path
       d="m 193.38,350.82 27.79,0 0,-272.95 -27.79,0 0,272.95 z"
       style="fill:#ffff55;fill-opacity:1;fill-rule:nonzero;stroke:none"
       id="path3424" /><path
       d="m 310.11,332 27.8,0 0,-254.13 -27.8,0 0,254.13 z"
       style="fill:#ff5555;fill-opacity:1;fill-rule:nonzero;stroke:none"
       id="path3426" /><path
       d="m 352.73,331.69 27.8,0 0,-253.82 -27.8,0 0,253.82 z"
       style="fill:#5555ff;fill-opacity:1;fill-rule:nonzero;stroke:none"
       id="path3428" /><path
       d="m 395.35,331.16 27.801,0 0,-253.29 -27.801,0 0,253.29 z"
       style="fill:#55ff55;fill-opacity:1;fill-rule:nonzero;stroke:none"
       id="path3430" /><path
       d="m 437.97,330.3 27.79,0 0,-252.43 -27.79,0 0,252.43 z"
       style="fill:#ffff55;fill-opacity:1;fill-rule:nonzero;stroke:none"
       id="path3432" /></g></svg>