<?xml version="1.0" encoding="UTF-8" standalone="no"?>
<!-- Created with Inkscape (http://www.inkscape.org/) -->

<svg
   xmlns:dc="http://purl.org/dc/elements/1.1/"
   xmlns:cc="http://creativecommons.org/ns#"
   xmlns:rdf="http://www.w3.org/1999/02/22-rdf-syntax-ns#"
   xmlns:svg="http://www.w3.org/2000/svg"
   xmlns="http://www.w3.org/2000/svg"
   xmlns:sodipodi="http://sodipodi.sourceforge.net/DTD/sodipodi-0.dtd"
   xmlns:inkscape="http://www.inkscape.org/namespaces/inkscape"
   id="svg3472"
   version="1.1"
   inkscape:version="0.48.3.1 r9886"
   width="625"
   height="500"
   xml:space="preserve"
   sodipodi:docname="eu-f1.pdf"><metadata
     id="metadata3478"><rdf:RDF><cc:Work
         rdf:about=""><dc:format>image/svg+xml</dc:format><dc:type
           rdf:resource="http://purl.org/dc/dcmitype/StillImage" /><dc:title></dc:title></cc:Work></rdf:RDF></metadata><defs
     id="defs3476"><clipPath
       clipPathUnits="userSpaceOnUse"
       id="clipPath3488"><path
         d="M 0,0 500,0 500,400 0,400 0,0 z"
         id="path3490" /></clipPath><clipPath
       clipPathUnits="userSpaceOnUse"
       id="clipPath3506"><path
         d="M 0,0 500,0 500,400 0,400 0,0 z"
         id="path3508" /></clipPath><clipPath
       clipPathUnits="userSpaceOnUse"
       id="clipPath3688"><path
         d="m 43.29,77.87 444.71,0 0,287.99 -444.71,0 0,-287.99 z"
         id="path3690" /></clipPath></defs><sodipodi:namedview
     pagecolor="#ffffff"
     bordercolor="#666666"
     borderopacity="1"
     objecttolerance="10"
     gridtolerance="10"
     guidetolerance="10"
     inkscape:pageopacity="0"
     inkscape:pageshadow="2"
     inkscape:window-width="640"
     inkscape:window-height="480"
     id="namedview3474"
     showgrid="false"
     inkscape:zoom="0.472"
     inkscape:cx="312.5"
     inkscape:cy="250"
     inkscape:window-x="216"
     inkscape:window-y="201"
     inkscape:window-maximized="0"
     inkscape:current-layer="g3480" /><g
     id="g3480"
     inkscape:groupmode="layer"
     inkscape:label="eu-f1"
     transform="matrix(1.25,0,0,-1.25,0,500)"><path
       d="M 0,0 500,0 500,400 0,400 0,0 z"
       style="fill:#ffffff;fill-opacity:1;fill-rule:nonzero;stroke:none"
       id="path3482" /><g
       id="g3484"><g
         id="g3486"
         clip-path="url(#clipPath3488)"><text
           transform="matrix(1,0,0,-1,220.9102,378.9902)"
           id="text3492"><tspan
             style="fill:#808080;fill-opacity:1;fill-rule:nonzero;stroke:none;font-family:Helvetica;font-variant:normal;font-weight:bold;font-stretch:normal;font-size:20;writing-mode:lr;-inkscape-font-specification:Helvetica-Bold"
             x="0 12.08 25.26 32.88 39.4 47.02"
             y="0"
             sodipodi:role="line"
             id="tspan3494">eu: f1</tspan></text>
</g></g><path
       d="m 135.16,23.48 229.68,0 0,-22.48 -229.68,0 0,22.48 z"
       style="fill:#ffffff;fill-opacity:1;fill-rule:nonzero;stroke:none"
       id="path3496" /><g
       id="g3498"
       transform="translate(135.6602,22.9805)"><path
         d="M 0,0 228.68,0"
         style="fill:none;stroke:#000000;stroke-opacity:1;stroke-width:1;stroke-linecap:square;stroke-linejoin:miter;stroke-miterlimit:10;stroke-dasharray:none"
         id="path3500" /></g><g
       id="g3502"><g
         id="g3504"
         clip-path="url(#clipPath3506)"><g
           id="g3510"
           transform="translate(135.6602,1.5)"><path
             d="M 0,0 228.68,0"
             style="fill:none;stroke:#000000;stroke-opacity:1;stroke-width:1;stroke-linecap:square;stroke-linejoin:miter;stroke-miterlimit:10;stroke-dasharray:none"
             id="path3512" /></g><g
           id="g3514"
           transform="translate(135.6602,1.5)"><path
             d="M 0,0 0,21.48"
             style="fill:none;stroke:#000000;stroke-opacity:1;stroke-width:1;stroke-linecap:square;stroke-linejoin:miter;stroke-miterlimit:10;stroke-dasharray:none"
             id="path3516" /></g><g
           id="g3518"
           transform="translate(364.3398,1.5)"><path
             d="M 0,0 0,21.48"
             style="fill:none;stroke:#000000;stroke-opacity:1;stroke-width:1;stroke-linecap:square;stroke-linejoin:miter;stroke-miterlimit:10;stroke-dasharray:none"
             id="path3520" /></g></g></g><path
       d="m 139.16,16.24 8,0 0,-8 -8,0 0,8 z"
       style="fill:#ff5555;fill-opacity:1;fill-rule:nonzero;stroke:none"
       id="path3522" /><text
       transform="matrix(1,0,0,-1,151.1602,7.4805)"
       id="text3524"><tspan
         style="fill:#404040;fill-opacity:1;fill-rule:nonzero;stroke:none;font-family:Helvetica;font-variant:normal;font-weight:normal;font-stretch:normal;font-size:12;writing-mode:lr;-inkscape-font-specification:Helvetica"
         x="0 6.444 12.888 18.672 25.116 27.552 29.988 36.432"
         y="0"
         sodipodi:role="line"
         id="tspan3526">baseline</tspan></text>
<path
       d="m 200.25,16.24 8,0 0,-8 -8,0 0,8 z"
       style="fill:#5555ff;fill-opacity:1;fill-rule:nonzero;stroke:none"
       id="path3528" /><text
       transform="matrix(1,0,0,-1,212.25,7.4805)"
       id="text3530"><tspan
         style="fill:#404040;fill-opacity:1;fill-rule:nonzero;stroke:none;font-family:Helvetica;font-variant:normal;font-weight:normal;font-stretch:normal;font-size:12;writing-mode:lr;-inkscape-font-specification:Helvetica"
         x="0 5.844 8.352 18.192 24.708 27.216"
         y="0"
         sodipodi:role="line"
         id="tspan3532">simple</tspan></text>
<path
       d="m 252.12,16.24 8,0 0,-8 -8,0 0,8 z"
       style="fill:#55ff55;fill-opacity:1;fill-rule:nonzero;stroke:none"
       id="path3534" /><text
       transform="matrix(1,0,0,-1,264.1201,7.4805)"
       id="text3536"><tspan
         style="fill:#404040;fill-opacity:1;fill-rule:nonzero;stroke:none;font-family:Helvetica;font-variant:normal;font-weight:normal;font-stretch:normal;font-size:12;writing-mode:lr;-inkscape-font-specification:Helvetica"
         x="0 5.856 12.384 22.236 28.764 31.284 37.812"
         y="0"
         sodipodi:role="line"
         id="tspan3538">complex</tspan></text>
<path
       d="m 313.88,16.24 8,0 0,-8 -8,0 0,8 z"
       style="fill:#ffff55;fill-opacity:1;fill-rule:nonzero;stroke:none"
       id="path3540" /><text
       transform="matrix(1,0,0,-1,325.8799,7.4805)"
       id="text3542"><tspan
         style="fill:#404040;fill-opacity:1;fill-rule:nonzero;stroke:none;font-family:Helvetica;font-variant:normal;font-weight:normal;font-stretch:normal;font-size:12;writing-mode:lr;-inkscape-font-specification:Helvetica"
         x="0 6.6 13.2 19.8 22.392 28.992"
         y="0"
         sodipodi:role="line"
         id="tspan3544">duplex</tspan></text>
<path
       d="m 43.29,365.86 444.71,0 0,-287.99 -444.71,0 0,287.99 z"
       style="fill:#ebebeb;fill-opacity:1;fill-rule:nonzero;stroke:none"
       id="path3546" /><g
       id="g3548"
       transform="translate(143.3501,73.8701)"><path
         d="M 0,0 0,0"
         style="fill:none;stroke:#808080;stroke-opacity:1;stroke-width:1;stroke-linecap:square;stroke-linejoin:miter;stroke-miterlimit:10;stroke-dasharray:none"
         id="path3550" /></g><g
       id="g3552"
       transform="translate(143.3501,73.8701)"><path
         d="M 0,0 0,-2"
         style="fill:none;stroke:#808080;stroke-opacity:1;stroke-width:1;stroke-linecap:square;stroke-linejoin:miter;stroke-miterlimit:10;stroke-dasharray:none"
         id="path3554" /></g><g
       id="g3556"
       transform="translate(387.9404,73.8701)"><path
         d="M 0,0 0,0"
         style="fill:none;stroke:#808080;stroke-opacity:1;stroke-width:1;stroke-linecap:square;stroke-linejoin:miter;stroke-miterlimit:10;stroke-dasharray:none"
         id="path3558" /></g><g
       id="g3560"
       transform="translate(387.9404,73.8701)"><path
         d="M 0,0 0,-2"
         style="fill:none;stroke:#808080;stroke-opacity:1;stroke-width:1;stroke-linecap:square;stroke-linejoin:miter;stroke-miterlimit:10;stroke-dasharray:none"
         id="path3562" /></g><text
       transform="matrix(1,0,0,-1,120.4399,55.8604)"
       id="text3564"><tspan
         style="fill:#808080;fill-opacity:1;fill-rule:nonzero;stroke:none;font-family:Helvetica;font-variant:normal;font-weight:normal;font-stretch:normal;font-size:12;writing-mode:lr;-inkscape-font-specification:Helvetica"
         x="0 8.448 14.904 17.352 23.808 29.592 36.048 42.504 241.764 245.256 249.408 253.56 260.388 263.208 270.036 276.192 283.02 289.848"
         y="0"
         sodipodi:role="line"
         id="tspan3566">RelevantIrrelevant</tspan></text>
<text
       transform="matrix(1,0,0,-1,201.6401,32.3799)"
       id="text3568"><tspan
         style="fill:#808080;fill-opacity:1;fill-rule:nonzero;stroke:none;font-family:Helvetica;font-variant:normal;font-weight:bold;font-stretch:normal;font-size:14;writing-mode:lr;-inkscape-font-specification:Helvetica-Bold"
         x="0 10.276 19.012 26.964 35.7 48.314 56.266 65.002 69.846 73.92 84.196 88.27 96.222 104.174 112.126 120.078"
         y="0"
         sodipodi:role="line"
         id="tspan3570">Document Classes</tspan></text>
<text
       transform="matrix(1,0,0,-1,10,73.0996)"
       id="text3572"><tspan
         style="fill:#808080;fill-opacity:1;fill-rule:nonzero;stroke:none;font-family:Helvetica;font-variant:normal;font-weight:normal;font-stretch:normal;font-size:12;writing-mode:lr;-inkscape-font-specification:Helvetica"
         x="0 6.648 9.972 16.62"
         y="0"
         sodipodi:role="line"
         id="tspan3574">0.00</tspan></text>
<g
       id="g3576"
       transform="translate(37.29,77.8701)"><path
         d="M 0,0 2,0"
         style="fill:none;stroke:#808080;stroke-opacity:1;stroke-width:1;stroke-linecap:square;stroke-linejoin:miter;stroke-miterlimit:10;stroke-dasharray:none"
         id="path3578" /></g><text
       transform="matrix(1,0,0,-1,10,95.1396)"
       id="text3580"><tspan
         style="fill:#808080;fill-opacity:1;fill-rule:nonzero;stroke:none;font-family:Helvetica;font-variant:normal;font-weight:normal;font-stretch:normal;font-size:12;writing-mode:lr;-inkscape-font-specification:Helvetica"
         x="0 6.648 9.972 16.62"
         y="0"
         sodipodi:role="line"
         id="tspan3582">0.05</tspan></text>
<g
       id="g3584"
       transform="translate(37.29,99.9004)"><path
         d="M 0,0 2,0"
         style="fill:none;stroke:#808080;stroke-opacity:1;stroke-width:1;stroke-linecap:square;stroke-linejoin:miter;stroke-miterlimit:10;stroke-dasharray:none"
         id="path3586" /></g><text
       transform="matrix(1,0,0,-1,10,117.1699)"
       id="text3588"><tspan
         style="fill:#808080;fill-opacity:1;fill-rule:nonzero;stroke:none;font-family:Helvetica;font-variant:normal;font-weight:normal;font-stretch:normal;font-size:12;writing-mode:lr;-inkscape-font-specification:Helvetica"
         x="0 6.648 9.972 16.62"
         y="0"
         sodipodi:role="line"
         id="tspan3590">0.10</tspan></text>
<g
       id="g3592"
       transform="translate(37.29,121.9404)"><path
         d="M 0,0 2,0"
         style="fill:none;stroke:#808080;stroke-opacity:1;stroke-width:1;stroke-linecap:square;stroke-linejoin:miter;stroke-miterlimit:10;stroke-dasharray:none"
         id="path3594" /></g><text
       transform="matrix(1,0,0,-1,10,139.21)"
       id="text3596"><tspan
         style="fill:#808080;fill-opacity:1;fill-rule:nonzero;stroke:none;font-family:Helvetica;font-variant:normal;font-weight:normal;font-stretch:normal;font-size:12;writing-mode:lr;-inkscape-font-specification:Helvetica"
         x="0 6.648 9.972 16.62"
         y="0"
         sodipodi:role="line"
         id="tspan3598">0.15</tspan></text>
<g
       id="g3600"
       transform="translate(37.29,143.9697)"><path
         d="M 0,0 2,0"
         style="fill:none;stroke:#808080;stroke-opacity:1;stroke-width:1;stroke-linecap:square;stroke-linejoin:miter;stroke-miterlimit:10;stroke-dasharray:none"
         id="path3602" /></g><text
       transform="matrix(1,0,0,-1,10,161.2402)"
       id="text3604"><tspan
         style="fill:#808080;fill-opacity:1;fill-rule:nonzero;stroke:none;font-family:Helvetica;font-variant:normal;font-weight:normal;font-stretch:normal;font-size:12;writing-mode:lr;-inkscape-font-specification:Helvetica"
         x="0 6.648 9.972 16.62"
         y="0"
         sodipodi:role="line"
         id="tspan3606">0.20</tspan></text>
<g
       id="g3608"
       transform="translate(37.29,166.0098)"><path
         d="M 0,0 2,0"
         style="fill:none;stroke:#808080;stroke-opacity:1;stroke-width:1;stroke-linecap:square;stroke-linejoin:miter;stroke-miterlimit:10;stroke-dasharray:none"
         id="path3610" /></g><text
       transform="matrix(1,0,0,-1,10,183.2803)"
       id="text3612"><tspan
         style="fill:#808080;fill-opacity:1;fill-rule:nonzero;stroke:none;font-family:Helvetica;font-variant:normal;font-weight:normal;font-stretch:normal;font-size:12;writing-mode:lr;-inkscape-font-specification:Helvetica"
         x="0 6.648 9.972 16.62"
         y="0"
         sodipodi:role="line"
         id="tspan3614">0.25</tspan></text>
<g
       id="g3616"
       transform="translate(37.29,188.04)"><path
         d="M 0,0 2,0"
         style="fill:none;stroke:#808080;stroke-opacity:1;stroke-width:1;stroke-linecap:square;stroke-linejoin:miter;stroke-miterlimit:10;stroke-dasharray:none"
         id="path3618" /></g><text
       transform="matrix(1,0,0,-1,10,205.3101)"
       id="text3620"><tspan
         style="fill:#808080;fill-opacity:1;fill-rule:nonzero;stroke:none;font-family:Helvetica;font-variant:normal;font-weight:normal;font-stretch:normal;font-size:12;writing-mode:lr;-inkscape-font-specification:Helvetica"
         x="0 6.648 9.972 16.62"
         y="0"
         sodipodi:role="line"
         id="tspan3622">0.30</tspan></text>
<g
       id="g3624"
       transform="translate(37.29,210.0801)"><path
         d="M 0,0 2,0"
         style="fill:none;stroke:#808080;stroke-opacity:1;stroke-width:1;stroke-linecap:square;stroke-linejoin:miter;stroke-miterlimit:10;stroke-dasharray:none"
         id="path3626" /></g><text
       transform="matrix(1,0,0,-1,10,227.3501)"
       id="text3628"><tspan
         style="fill:#808080;fill-opacity:1;fill-rule:nonzero;stroke:none;font-family:Helvetica;font-variant:normal;font-weight:normal;font-stretch:normal;font-size:12;writing-mode:lr;-inkscape-font-specification:Helvetica"
         x="0 6.648 9.972 16.62"
         y="0"
         sodipodi:role="line"
         id="tspan3630">0.35</tspan></text>
<g
       id="g3632"
       transform="translate(37.29,232.1099)"><path
         d="M 0,0 2,0"
         style="fill:none;stroke:#808080;stroke-opacity:1;stroke-width:1;stroke-linecap:square;stroke-linejoin:miter;stroke-miterlimit:10;stroke-dasharray:none"
         id="path3634" /></g><text
       transform="matrix(1,0,0,-1,10,249.3799)"
       id="text3636"><tspan
         style="fill:#808080;fill-opacity:1;fill-rule:nonzero;stroke:none;font-family:Helvetica;font-variant:normal;font-weight:normal;font-stretch:normal;font-size:12;writing-mode:lr;-inkscape-font-specification:Helvetica"
         x="0 6.648 9.972 16.62"
         y="0"
         sodipodi:role="line"
         id="tspan3638">0.40</tspan></text>
<g
       id="g3640"
       transform="translate(37.29,254.1401)"><path
         d="M 0,0 2,0"
         style="fill:none;stroke:#808080;stroke-opacity:1;stroke-width:1;stroke-linecap:square;stroke-linejoin:miter;stroke-miterlimit:10;stroke-dasharray:none"
         id="path3642" /></g><text
       transform="matrix(1,0,0,-1,10,271.4199)"
       id="text3644"><tspan
         style="fill:#808080;fill-opacity:1;fill-rule:nonzero;stroke:none;font-family:Helvetica;font-variant:normal;font-weight:normal;font-stretch:normal;font-size:12;writing-mode:lr;-inkscape-font-specification:Helvetica"
         x="0 6.648 9.972 16.62"
         y="0"
         sodipodi:role="line"
         id="tspan3646">0.45</tspan></text>
<g
       id="g3648"
       transform="translate(37.29,276.1802)"><path
         d="M 0,0 2,0"
         style="fill:none;stroke:#808080;stroke-opacity:1;stroke-width:1;stroke-linecap:square;stroke-linejoin:miter;stroke-miterlimit:10;stroke-dasharray:none"
         id="path3650" /></g><text
       transform="matrix(1,0,0,-1,10,293.4502)"
       id="text3652"><tspan
         style="fill:#808080;fill-opacity:1;fill-rule:nonzero;stroke:none;font-family:Helvetica;font-variant:normal;font-weight:normal;font-stretch:normal;font-size:12;writing-mode:lr;-inkscape-font-specification:Helvetica"
         x="0 6.648 9.972 16.62"
         y="0"
         sodipodi:role="line"
         id="tspan3654">0.50</tspan></text>
<g
       id="g3656"
       transform="translate(37.29,298.21)"><path
         d="M 0,0 2,0"
         style="fill:none;stroke:#808080;stroke-opacity:1;stroke-width:1;stroke-linecap:square;stroke-linejoin:miter;stroke-miterlimit:10;stroke-dasharray:none"
         id="path3658" /></g><text
       transform="matrix(1,0,0,-1,10,315.4902)"
       id="text3660"><tspan
         style="fill:#808080;fill-opacity:1;fill-rule:nonzero;stroke:none;font-family:Helvetica;font-variant:normal;font-weight:normal;font-stretch:normal;font-size:12;writing-mode:lr;-inkscape-font-specification:Helvetica"
         x="0 6.648 9.972 16.62"
         y="0"
         sodipodi:role="line"
         id="tspan3662">0.55</tspan></text>
<g
       id="g3664"
       transform="translate(37.29,320.25)"><path
         d="M 0,0 2,0"
         style="fill:none;stroke:#808080;stroke-opacity:1;stroke-width:1;stroke-linecap:square;stroke-linejoin:miter;stroke-miterlimit:10;stroke-dasharray:none"
         id="path3666" /></g><text
       transform="matrix(1,0,0,-1,10,337.52)"
       id="text3668"><tspan
         style="fill:#808080;fill-opacity:1;fill-rule:nonzero;stroke:none;font-family:Helvetica;font-variant:normal;font-weight:normal;font-stretch:normal;font-size:12;writing-mode:lr;-inkscape-font-specification:Helvetica"
         x="0 6.648 9.972 16.62"
         y="0"
         sodipodi:role="line"
         id="tspan3670">0.60</tspan></text>
<g
       id="g3672"
       transform="translate(37.29,342.2798)"><path
         d="M 0,0 2,0"
         style="fill:none;stroke:#808080;stroke-opacity:1;stroke-width:1;stroke-linecap:square;stroke-linejoin:miter;stroke-miterlimit:10;stroke-dasharray:none"
         id="path3674" /></g><text
       transform="matrix(1,0,0,-1,10,359.5498)"
       id="text3676"><tspan
         style="fill:#808080;fill-opacity:1;fill-rule:nonzero;stroke:none;font-family:Helvetica;font-variant:normal;font-weight:normal;font-stretch:normal;font-size:12;writing-mode:lr;-inkscape-font-specification:Helvetica"
         x="0 6.648 9.972 16.62"
         y="0"
         sodipodi:role="line"
         id="tspan3678">0.65</tspan></text>
<g
       id="g3680"
       transform="translate(37.29,364.3198)"><path
         d="M 0,0 2,0"
         style="fill:none;stroke:#808080;stroke-opacity:1;stroke-width:1;stroke-linecap:square;stroke-linejoin:miter;stroke-miterlimit:10;stroke-dasharray:none"
         id="path3682" /></g><g
       id="g3684"><g
         id="g3686"
         clip-path="url(#clipPath3688)"><g
           id="g3692"
           transform="translate(43.29,77.8701)"><path
             d="M 0,0 444.71,0"
             style="fill:none;stroke:#ffffff;stroke-opacity:1;stroke-width:1;stroke-linecap:round;stroke-linejoin:round;stroke-miterlimit:10;stroke-dasharray:1,1;stroke-dashoffset:0"
             id="path3694" /></g><g
           id="g3696"
           transform="translate(43.29,99.9004)"><path
             d="M 0,0 444.71,0"
             style="fill:none;stroke:#ffffff;stroke-opacity:1;stroke-width:1;stroke-linecap:round;stroke-linejoin:round;stroke-miterlimit:10;stroke-dasharray:1,1;stroke-dashoffset:0"
             id="path3698" /></g><g
           id="g3700"
           transform="translate(43.29,121.9404)"><path
             d="M 0,0 444.71,0"
             style="fill:none;stroke:#ffffff;stroke-opacity:1;stroke-width:1;stroke-linecap:round;stroke-linejoin:round;stroke-miterlimit:10;stroke-dasharray:1,1;stroke-dashoffset:0"
             id="path3702" /></g><g
           id="g3704"
           transform="translate(43.29,143.9697)"><path
             d="M 0,0 444.71,0"
             style="fill:none;stroke:#ffffff;stroke-opacity:1;stroke-width:1;stroke-linecap:round;stroke-linejoin:round;stroke-miterlimit:10;stroke-dasharray:1,1;stroke-dashoffset:0"
             id="path3706" /></g><g
           id="g3708"
           transform="translate(43.29,166.0098)"><path
             d="M 0,0 444.71,0"
             style="fill:none;stroke:#ffffff;stroke-opacity:1;stroke-width:1;stroke-linecap:round;stroke-linejoin:round;stroke-miterlimit:10;stroke-dasharray:1,1;stroke-dashoffset:0"
             id="path3710" /></g><g
           id="g3712"
           transform="translate(43.29,188.04)"><path
             d="M 0,0 444.71,0"
             style="fill:none;stroke:#ffffff;stroke-opacity:1;stroke-width:1;stroke-linecap:round;stroke-linejoin:round;stroke-miterlimit:10;stroke-dasharray:1,1;stroke-dashoffset:0"
             id="path3714" /></g><g
           id="g3716"
           transform="translate(43.29,210.0801)"><path
             d="M 0,0 444.71,0"
             style="fill:none;stroke:#ffffff;stroke-opacity:1;stroke-width:1;stroke-linecap:round;stroke-linejoin:round;stroke-miterlimit:10;stroke-dasharray:1,1;stroke-dashoffset:0"
             id="path3718" /></g><g
           id="g3720"
           transform="translate(43.29,232.1099)"><path
             d="M 0,0 444.71,0"
             style="fill:none;stroke:#ffffff;stroke-opacity:1;stroke-width:1;stroke-linecap:round;stroke-linejoin:round;stroke-miterlimit:10;stroke-dasharray:1,1;stroke-dashoffset:0"
             id="path3722" /></g><g
           id="g3724"
           transform="translate(43.29,254.1401)"><path
             d="M 0,0 444.71,0"
             style="fill:none;stroke:#ffffff;stroke-opacity:1;stroke-width:1;stroke-linecap:round;stroke-linejoin:round;stroke-miterlimit:10;stroke-dasharray:1,1;stroke-dashoffset:0"
             id="path3726" /></g><g
           id="g3728"
           transform="translate(43.29,276.1802)"><path
             d="M 0,0 444.71,0"
             style="fill:none;stroke:#ffffff;stroke-opacity:1;stroke-width:1;stroke-linecap:round;stroke-linejoin:round;stroke-miterlimit:10;stroke-dasharray:1,1;stroke-dashoffset:0"
             id="path3730" /></g><g
           id="g3732"
           transform="translate(43.29,298.21)"><path
             d="M 0,0 444.71,0"
             style="fill:none;stroke:#ffffff;stroke-opacity:1;stroke-width:1;stroke-linecap:round;stroke-linejoin:round;stroke-miterlimit:10;stroke-dasharray:1,1;stroke-dashoffset:0"
             id="path3734" /></g><g
           id="g3736"
           transform="translate(43.29,320.25)"><path
             d="M 0,0 444.71,0"
             style="fill:none;stroke:#ffffff;stroke-opacity:1;stroke-width:1;stroke-linecap:round;stroke-linejoin:round;stroke-miterlimit:10;stroke-dasharray:1,1;stroke-dashoffset:0"
             id="path3738" /></g><g
           id="g3740"
           transform="translate(43.29,342.2798)"><path
             d="M 0,0 444.71,0"
             style="fill:none;stroke:#ffffff;stroke-opacity:1;stroke-width:1;stroke-linecap:round;stroke-linejoin:round;stroke-miterlimit:10;stroke-dasharray:1,1;stroke-dashoffset:0"
             id="path3742" /></g><g
           id="g3744"
           transform="translate(43.29,364.3198)"><path
             d="M 0,0 444.71,0"
             style="fill:none;stroke:#ffffff;stroke-opacity:1;stroke-width:1;stroke-linecap:round;stroke-linejoin:round;stroke-miterlimit:10;stroke-dasharray:1,1;stroke-dashoffset:0"
             id="path3746" /></g></g></g><path
       d="m 65.52,218.66 27.8,0 0,-140.79 -27.8,0 0,140.79 z"
       style="fill:#ff5555;fill-opacity:1;fill-rule:nonzero;stroke:none"
       id="path3748" /><path
       d="m 108.14,219.1 27.79,0 0,-141.23 -27.79,0 0,141.23 z"
       style="fill:#5555ff;fill-opacity:1;fill-rule:nonzero;stroke:none"
       id="path3750" /><path
       d="m 150.76,217.94 27.79,0 0,-140.07 -27.79,0 0,140.07 z"
       style="fill:#55ff55;fill-opacity:1;fill-rule:nonzero;stroke:none"
       id="path3752" /><path
       d="m 193.38,217.75 27.79,0 0,-139.88 -27.79,0 0,139.88 z"
       style="fill:#ffff55;fill-opacity:1;fill-rule:nonzero;stroke:none"
       id="path3754" /><path
       d="m 310.11,348.2 27.8,0 0,-270.33 -27.8,0 0,270.33 z"
       style="fill:#ff5555;fill-opacity:1;fill-rule:nonzero;stroke:none"
       id="path3756" /><path
       d="m 352.73,349.25 27.8,0 0,-271.38 -27.8,0 0,271.38 z"
       style="fill:#5555ff;fill-opacity:1;fill-rule:nonzero;stroke:none"
       id="path3758" /><path
       d="m 395.35,351.61 27.801,0 0,-273.74 -27.801,0 0,273.74 z"
       style="fill:#55ff55;fill-opacity:1;fill-rule:nonzero;stroke:none"
       id="path3760" /><path
       d="m 437.97,352.15 27.79,0 0,-274.28 -27.79,0 0,274.28 z"
       style="fill:#ffff55;fill-opacity:1;fill-rule:nonzero;stroke:none"
       id="path3762" /></g></svg>