<?xml version="1.0" encoding="UTF-8" standalone="no"?>
<!-- Created with Inkscape (http://www.inkscape.org/) -->

<svg
   xmlns:dc="http://purl.org/dc/elements/1.1/"
   xmlns:cc="http://creativecommons.org/ns#"
   xmlns:rdf="http://www.w3.org/1999/02/22-rdf-syntax-ns#"
   xmlns:svg="http://www.w3.org/2000/svg"
   xmlns="http://www.w3.org/2000/svg"
   xmlns:sodipodi="http://sodipodi.sourceforge.net/DTD/sodipodi-0.dtd"
   xmlns:inkscape="http://www.inkscape.org/namespaces/inkscape"
   id="svg3764"
   version="1.1"
   inkscape:version="0.48.3.1 r9886"
   width="625"
   height="500"
   xml:space="preserve"
   sodipodi:docname="europe-f1.pdf"><metadata
     id="metadata3770"><rdf:RDF><cc:Work
         rdf:about=""><dc:format>image/svg+xml</dc:format><dc:type
           rdf:resource="http://purl.org/dc/dcmitype/StillImage" /><dc:title></dc:title></cc:Work></rdf:RDF></metadata><defs
     id="defs3768"><clipPath
       clipPathUnits="userSpaceOnUse"
       id="clipPath3780"><path
         d="M 0,0 500,0 500,400 0,400 0,0 z"
         id="path3782" /></clipPath><clipPath
       clipPathUnits="userSpaceOnUse"
       id="clipPath3798"><path
         d="M 0,0 500,0 500,400 0,400 0,0 z"
         id="path3800" /></clipPath><clipPath
       clipPathUnits="userSpaceOnUse"
       id="clipPath3940"><path
         d="m 43.29,77.87 444.71,0 0,287.99 -444.71,0 0,-287.99 z"
         id="path3942" /></clipPath></defs><sodipodi:namedview
     pagecolor="#ffffff"
     bordercolor="#666666"
     borderopacity="1"
     objecttolerance="10"
     gridtolerance="10"
     guidetolerance="10"
     inkscape:pageopacity="0"
     inkscape:pageshadow="2"
     inkscape:window-width="640"
     inkscape:window-height="480"
     id="namedview3766"
     showgrid="false"
     inkscape:zoom="0.472"
     inkscape:cx="312.5"
     inkscape:cy="250"
     inkscape:window-x="303"
     inkscape:window-y="193"
     inkscape:window-maximized="0"
     inkscape:current-layer="g3772" /><g
     id="g3772"
     inkscape:groupmode="layer"
     inkscape:label="europe-f1"
     transform="matrix(1.25,0,0,-1.25,0,500)"><path
       d="M 0,0 500,0 500,400 0,400 0,0 z"
       style="fill:#ffffff;fill-opacity:1;fill-rule:nonzero;stroke:none"
       id="path3774" /><g
       id="g3776"><g
         id="g3778"
         clip-path="url(#clipPath3780)"><text
           transform="matrix(1,0,0,-1,198.1699,378.9902)"
           id="text3784"><tspan
             style="fill:#808080;fill-opacity:1;fill-rule:nonzero;stroke:none;font-family:Helvetica;font-variant:normal;font-weight:bold;font-stretch:normal;font-size:20;writing-mode:lr;-inkscape-font-specification:Helvetica-Bold"
             x="0 11.88 24.86 33.4 46.38 59.36 71.24 78.66 84.98 92.4"
             y="0"
             sodipodi:role="line"
             id="tspan3786">europe: f1</tspan></text>
</g></g><path
       d="m 135.16,23.48 229.68,0 0,-22.48 -229.68,0 0,22.48 z"
       style="fill:#ffffff;fill-opacity:1;fill-rule:nonzero;stroke:none"
       id="path3788" /><g
       id="g3790"
       transform="translate(135.6602,22.9805)"><path
         d="M 0,0 228.68,0"
         style="fill:none;stroke:#000000;stroke-opacity:1;stroke-width:1;stroke-linecap:square;stroke-linejoin:miter;stroke-miterlimit:10;stroke-dasharray:none"
         id="path3792" /></g><g
       id="g3794"><g
         id="g3796"
         clip-path="url(#clipPath3798)"><g
           id="g3802"
           transform="translate(135.6602,1.5)"><path
             d="M 0,0 228.68,0"
             style="fill:none;stroke:#000000;stroke-opacity:1;stroke-width:1;stroke-linecap:square;stroke-linejoin:miter;stroke-miterlimit:10;stroke-dasharray:none"
             id="path3804" /></g><g
           id="g3806"
           transform="translate(135.6602,1.5)"><path
             d="M 0,0 0,21.48"
             style="fill:none;stroke:#000000;stroke-opacity:1;stroke-width:1;stroke-linecap:square;stroke-linejoin:miter;stroke-miterlimit:10;stroke-dasharray:none"
             id="path3808" /></g><g
           id="g3810"
           transform="translate(364.3398,1.5)"><path
             d="M 0,0 0,21.48"
             style="fill:none;stroke:#000000;stroke-opacity:1;stroke-width:1;stroke-linecap:square;stroke-linejoin:miter;stroke-miterlimit:10;stroke-dasharray:none"
             id="path3812" /></g></g></g><path
       d="m 139.16,16.24 8,0 0,-8 -8,0 0,8 z"
       style="fill:#ff5555;fill-opacity:1;fill-rule:nonzero;stroke:none"
       id="path3814" /><text
       transform="matrix(1,0,0,-1,151.1602,7.4805)"
       id="text3816"><tspan
         style="fill:#404040;fill-opacity:1;fill-rule:nonzero;stroke:none;font-family:Helvetica;font-variant:normal;font-weight:normal;font-stretch:normal;font-size:12;writing-mode:lr;-inkscape-font-specification:Helvetica"
         x="0 6.444 12.888 18.672 25.116 27.552 29.988 36.432"
         y="0"
         sodipodi:role="line"
         id="tspan3818">baseline</tspan></text>
<path
       d="m 200.25,16.24 8,0 0,-8 -8,0 0,8 z"
       style="fill:#5555ff;fill-opacity:1;fill-rule:nonzero;stroke:none"
       id="path3820" /><text
       transform="matrix(1,0,0,-1,212.25,7.4805)"
       id="text3822"><tspan
         style="fill:#404040;fill-opacity:1;fill-rule:nonzero;stroke:none;font-family:Helvetica;font-variant:normal;font-weight:normal;font-stretch:normal;font-size:12;writing-mode:lr;-inkscape-font-specification:Helvetica"
         x="0 5.844 8.352 18.192 24.708 27.216"
         y="0"
         sodipodi:role="line"
         id="tspan3824">simple</tspan></text>
<path
       d="m 252.12,16.24 8,0 0,-8 -8,0 0,8 z"
       style="fill:#55ff55;fill-opacity:1;fill-rule:nonzero;stroke:none"
       id="path3826" /><text
       transform="matrix(1,0,0,-1,264.1201,7.4805)"
       id="text3828"><tspan
         style="fill:#404040;fill-opacity:1;fill-rule:nonzero;stroke:none;font-family:Helvetica;font-variant:normal;font-weight:normal;font-stretch:normal;font-size:12;writing-mode:lr;-inkscape-font-specification:Helvetica"
         x="0 5.856 12.384 22.236 28.764 31.284 37.812"
         y="0"
         sodipodi:role="line"
         id="tspan3830">complex</tspan></text>
<path
       d="m 313.88,16.24 8,0 0,-8 -8,0 0,8 z"
       style="fill:#ffff55;fill-opacity:1;fill-rule:nonzero;stroke:none"
       id="path3832" /><text
       transform="matrix(1,0,0,-1,325.8799,7.4805)"
       id="text3834"><tspan
         style="fill:#404040;fill-opacity:1;fill-rule:nonzero;stroke:none;font-family:Helvetica;font-variant:normal;font-weight:normal;font-stretch:normal;font-size:12;writing-mode:lr;-inkscape-font-specification:Helvetica"
         x="0 6.6 13.2 19.8 22.392 28.992"
         y="0"
         sodipodi:role="line"
         id="tspan3836">duplex</tspan></text>
<path
       d="m 43.29,365.86 444.71,0 0,-287.99 -444.71,0 0,287.99 z"
       style="fill:#ebebeb;fill-opacity:1;fill-rule:nonzero;stroke:none"
       id="path3838" /><g
       id="g3840"
       transform="translate(143.3501,73.8701)"><path
         d="M 0,0 0,0"
         style="fill:none;stroke:#808080;stroke-opacity:1;stroke-width:1;stroke-linecap:square;stroke-linejoin:miter;stroke-miterlimit:10;stroke-dasharray:none"
         id="path3842" /></g><g
       id="g3844"
       transform="translate(143.3501,73.8701)"><path
         d="M 0,0 0,-2"
         style="fill:none;stroke:#808080;stroke-opacity:1;stroke-width:1;stroke-linecap:square;stroke-linejoin:miter;stroke-miterlimit:10;stroke-dasharray:none"
         id="path3846" /></g><g
       id="g3848"
       transform="translate(387.9404,73.8701)"><path
         d="M 0,0 0,0"
         style="fill:none;stroke:#808080;stroke-opacity:1;stroke-width:1;stroke-linecap:square;stroke-linejoin:miter;stroke-miterlimit:10;stroke-dasharray:none"
         id="path3850" /></g><g
       id="g3852"
       transform="translate(387.9404,73.8701)"><path
         d="M 0,0 0,-2"
         style="fill:none;stroke:#808080;stroke-opacity:1;stroke-width:1;stroke-linecap:square;stroke-linejoin:miter;stroke-miterlimit:10;stroke-dasharray:none"
         id="path3854" /></g><text
       transform="matrix(1,0,0,-1,120.4399,55.8604)"
       id="text3856"><tspan
         style="fill:#808080;fill-opacity:1;fill-rule:nonzero;stroke:none;font-family:Helvetica;font-variant:normal;font-weight:normal;font-stretch:normal;font-size:12;writing-mode:lr;-inkscape-font-specification:Helvetica"
         x="0 8.448 14.904 17.352 23.808 29.592 36.048 42.504 241.764 245.256 249.408 253.56 260.388 263.208 270.036 276.192 283.02 289.848"
         y="0"
         sodipodi:role="line"
         id="tspan3858">RelevantIrrelevant</tspan></text>
<text
       transform="matrix(1,0,0,-1,201.6401,32.3799)"
       id="text3860"><tspan
         style="fill:#808080;fill-opacity:1;fill-rule:nonzero;stroke:none;font-family:Helvetica;font-variant:normal;font-weight:bold;font-stretch:normal;font-size:14;writing-mode:lr;-inkscape-font-specification:Helvetica-Bold"
         x="0 10.276 19.012 26.964 35.7 48.314 56.266 65.002 69.846 73.92 84.196 88.27 96.222 104.174 112.126 120.078"
         y="0"
         sodipodi:role="line"
         id="tspan3862">Document Classes</tspan></text>
<text
       transform="matrix(1,0,0,-1,16.5498,73.0996)"
       id="text3864"><tspan
         style="fill:#808080;fill-opacity:1;fill-rule:nonzero;stroke:none;font-family:Helvetica;font-variant:normal;font-weight:normal;font-stretch:normal;font-size:12;writing-mode:lr;-inkscape-font-specification:Helvetica"
         x="0 6.696 10.056"
         y="0"
         sodipodi:role="line"
         id="tspan3866">0.0</tspan></text>
<g
       id="g3868"
       transform="translate(37.29,77.8701)"><path
         d="M 0,0 2,0"
         style="fill:none;stroke:#808080;stroke-opacity:1;stroke-width:1;stroke-linecap:square;stroke-linejoin:miter;stroke-miterlimit:10;stroke-dasharray:none"
         id="path3870" /></g><text
       transform="matrix(1,0,0,-1,16.5498,105.96)"
       id="text3872"><tspan
         style="fill:#808080;fill-opacity:1;fill-rule:nonzero;stroke:none;font-family:Helvetica;font-variant:normal;font-weight:normal;font-stretch:normal;font-size:12;writing-mode:lr;-inkscape-font-specification:Helvetica"
         x="0 6.696 10.056"
         y="0"
         sodipodi:role="line"
         id="tspan3874">0.1</tspan></text>
<g
       id="g3876"
       transform="translate(37.29,110.7197)"><path
         d="M 0,0 2,0"
         style="fill:none;stroke:#808080;stroke-opacity:1;stroke-width:1;stroke-linecap:square;stroke-linejoin:miter;stroke-miterlimit:10;stroke-dasharray:none"
         id="path3878" /></g><text
       transform="matrix(1,0,0,-1,16.5498,138.8096)"
       id="text3880"><tspan
         style="fill:#808080;fill-opacity:1;fill-rule:nonzero;stroke:none;font-family:Helvetica;font-variant:normal;font-weight:normal;font-stretch:normal;font-size:12;writing-mode:lr;-inkscape-font-specification:Helvetica"
         x="0 6.696 10.056"
         y="0"
         sodipodi:role="line"
         id="tspan3882">0.2</tspan></text>
<g
       id="g3884"
       transform="translate(37.29,143.5703)"><path
         d="M 0,0 2,0"
         style="fill:none;stroke:#808080;stroke-opacity:1;stroke-width:1;stroke-linecap:square;stroke-linejoin:miter;stroke-miterlimit:10;stroke-dasharray:none"
         id="path3886" /></g><text
       transform="matrix(1,0,0,-1,16.5498,171.6602)"
       id="text3888"><tspan
         style="fill:#808080;fill-opacity:1;fill-rule:nonzero;stroke:none;font-family:Helvetica;font-variant:normal;font-weight:normal;font-stretch:normal;font-size:12;writing-mode:lr;-inkscape-font-specification:Helvetica"
         x="0 6.696 10.056"
         y="0"
         sodipodi:role="line"
         id="tspan3890">0.3</tspan></text>
<g
       id="g3892"
       transform="translate(37.29,176.4297)"><path
         d="M 0,0 2,0"
         style="fill:none;stroke:#808080;stroke-opacity:1;stroke-width:1;stroke-linecap:square;stroke-linejoin:miter;stroke-miterlimit:10;stroke-dasharray:none"
         id="path3894" /></g><text
       transform="matrix(1,0,0,-1,16.5498,204.52)"
       id="text3896"><tspan
         style="fill:#808080;fill-opacity:1;fill-rule:nonzero;stroke:none;font-family:Helvetica;font-variant:normal;font-weight:normal;font-stretch:normal;font-size:12;writing-mode:lr;-inkscape-font-specification:Helvetica"
         x="0 6.696 10.056"
         y="0"
         sodipodi:role="line"
         id="tspan3898">0.4</tspan></text>
<g
       id="g3900"
       transform="translate(37.29,209.2798)"><path
         d="M 0,0 2,0"
         style="fill:none;stroke:#808080;stroke-opacity:1;stroke-width:1;stroke-linecap:square;stroke-linejoin:miter;stroke-miterlimit:10;stroke-dasharray:none"
         id="path3902" /></g><text
       transform="matrix(1,0,0,-1,16.5498,237.3701)"
       id="text3904"><tspan
         style="fill:#808080;fill-opacity:1;fill-rule:nonzero;stroke:none;font-family:Helvetica;font-variant:normal;font-weight:normal;font-stretch:normal;font-size:12;writing-mode:lr;-inkscape-font-specification:Helvetica"
         x="0 6.696 10.056"
         y="0"
         sodipodi:role="line"
         id="tspan3906">0.5</tspan></text>
<g
       id="g3908"
       transform="translate(37.29,242.1401)"><path
         d="M 0,0 2,0"
         style="fill:none;stroke:#808080;stroke-opacity:1;stroke-width:1;stroke-linecap:square;stroke-linejoin:miter;stroke-miterlimit:10;stroke-dasharray:none"
         id="path3910" /></g><text
       transform="matrix(1,0,0,-1,16.5498,270.23)"
       id="text3912"><tspan
         style="fill:#808080;fill-opacity:1;fill-rule:nonzero;stroke:none;font-family:Helvetica;font-variant:normal;font-weight:normal;font-stretch:normal;font-size:12;writing-mode:lr;-inkscape-font-specification:Helvetica"
         x="0 6.696 10.056"
         y="0"
         sodipodi:role="line"
         id="tspan3914">0.6</tspan></text>
<g
       id="g3916"
       transform="translate(37.29,274.9902)"><path
         d="M 0,0 2,0"
         style="fill:none;stroke:#808080;stroke-opacity:1;stroke-width:1;stroke-linecap:square;stroke-linejoin:miter;stroke-miterlimit:10;stroke-dasharray:none"
         id="path3918" /></g><text
       transform="matrix(1,0,0,-1,16.5498,303.0801)"
       id="text3920"><tspan
         style="fill:#808080;fill-opacity:1;fill-rule:nonzero;stroke:none;font-family:Helvetica;font-variant:normal;font-weight:normal;font-stretch:normal;font-size:12;writing-mode:lr;-inkscape-font-specification:Helvetica"
         x="0 6.696 10.056"
         y="0"
         sodipodi:role="line"
         id="tspan3922">0.7</tspan></text>
<g
       id="g3924"
       transform="translate(37.29,307.8398)"><path
         d="M 0,0 2,0"
         style="fill:none;stroke:#808080;stroke-opacity:1;stroke-width:1;stroke-linecap:square;stroke-linejoin:miter;stroke-miterlimit:10;stroke-dasharray:none"
         id="path3926" /></g><text
       transform="matrix(1,0,0,-1,16.5498,335.9302)"
       id="text3928"><tspan
         style="fill:#808080;fill-opacity:1;fill-rule:nonzero;stroke:none;font-family:Helvetica;font-variant:normal;font-weight:normal;font-stretch:normal;font-size:12;writing-mode:lr;-inkscape-font-specification:Helvetica"
         x="0 6.696 10.056"
         y="0"
         sodipodi:role="line"
         id="tspan3930">0.8</tspan></text>
<g
       id="g3932"
       transform="translate(37.29,340.7002)"><path
         d="M 0,0 2,0"
         style="fill:none;stroke:#808080;stroke-opacity:1;stroke-width:1;stroke-linecap:square;stroke-linejoin:miter;stroke-miterlimit:10;stroke-dasharray:none"
         id="path3934" /></g><g
       id="g3936"><g
         id="g3938"
         clip-path="url(#clipPath3940)"><g
           id="g3944"
           transform="translate(43.29,77.8701)"><path
             d="M 0,0 444.71,0"
             style="fill:none;stroke:#ffffff;stroke-opacity:1;stroke-width:1;stroke-linecap:round;stroke-linejoin:round;stroke-miterlimit:10;stroke-dasharray:1,1;stroke-dashoffset:0"
             id="path3946" /></g><g
           id="g3948"
           transform="translate(43.29,110.7197)"><path
             d="M 0,0 444.71,0"
             style="fill:none;stroke:#ffffff;stroke-opacity:1;stroke-width:1;stroke-linecap:round;stroke-linejoin:round;stroke-miterlimit:10;stroke-dasharray:1,1;stroke-dashoffset:0"
             id="path3950" /></g><g
           id="g3952"
           transform="translate(43.29,143.5703)"><path
             d="M 0,0 444.71,0"
             style="fill:none;stroke:#ffffff;stroke-opacity:1;stroke-width:1;stroke-linecap:round;stroke-linejoin:round;stroke-miterlimit:10;stroke-dasharray:1,1;stroke-dashoffset:0"
             id="path3954" /></g><g
           id="g3956"
           transform="translate(43.29,176.4297)"><path
             d="M 0,0 444.71,0"
             style="fill:none;stroke:#ffffff;stroke-opacity:1;stroke-width:1;stroke-linecap:round;stroke-linejoin:round;stroke-miterlimit:10;stroke-dasharray:1,1;stroke-dashoffset:0"
             id="path3958" /></g><g
           id="g3960"
           transform="translate(43.29,209.2798)"><path
             d="M 0,0 444.71,0"
             style="fill:none;stroke:#ffffff;stroke-opacity:1;stroke-width:1;stroke-linecap:round;stroke-linejoin:round;stroke-miterlimit:10;stroke-dasharray:1,1;stroke-dashoffset:0"
             id="path3962" /></g><g
           id="g3964"
           transform="translate(43.29,242.1401)"><path
             d="M 0,0 444.71,0"
             style="fill:none;stroke:#ffffff;stroke-opacity:1;stroke-width:1;stroke-linecap:round;stroke-linejoin:round;stroke-miterlimit:10;stroke-dasharray:1,1;stroke-dashoffset:0"
             id="path3966" /></g><g
           id="g3968"
           transform="translate(43.29,274.9902)"><path
             d="M 0,0 444.71,0"
             style="fill:none;stroke:#ffffff;stroke-opacity:1;stroke-width:1;stroke-linecap:round;stroke-linejoin:round;stroke-miterlimit:10;stroke-dasharray:1,1;stroke-dashoffset:0"
             id="path3970" /></g><g
           id="g3972"
           transform="translate(43.29,307.8398)"><path
             d="M 0,0 444.71,0"
             style="fill:none;stroke:#ffffff;stroke-opacity:1;stroke-width:1;stroke-linecap:round;stroke-linejoin:round;stroke-miterlimit:10;stroke-dasharray:1,1;stroke-dashoffset:0"
             id="path3974" /></g><g
           id="g3976"
           transform="translate(43.29,340.7002)"><path
             d="M 0,0 444.71,0"
             style="fill:none;stroke:#ffffff;stroke-opacity:1;stroke-width:1;stroke-linecap:round;stroke-linejoin:round;stroke-miterlimit:10;stroke-dasharray:1,1;stroke-dashoffset:0"
             id="path3978" /></g></g></g><path
       d="m 65.52,171.75 27.8,0 0,-93.88 -27.8,0 0,93.88 z"
       style="fill:#ff5555;fill-opacity:1;fill-rule:nonzero;stroke:none"
       id="path3980" /><path
       d="m 108.14,171.87 27.79,0 0,-94 -27.79,0 0,94 z"
       style="fill:#5555ff;fill-opacity:1;fill-rule:nonzero;stroke:none"
       id="path3982" /><path
       d="m 150.76,175.21 27.79,0 0,-97.34 -27.79,0 0,97.34 z"
       style="fill:#55ff55;fill-opacity:1;fill-rule:nonzero;stroke:none"
       id="path3984" /><path
       d="m 193.38,175.72 27.79,0 0,-97.85 -27.79,0 0,97.85 z"
       style="fill:#ffff55;fill-opacity:1;fill-rule:nonzero;stroke:none"
       id="path3986" /><path
       d="m 310.11,348.82 27.8,0 0,-270.95 -27.8,0 0,270.95 z"
       style="fill:#ff5555;fill-opacity:1;fill-rule:nonzero;stroke:none"
       id="path3988" /><path
       d="m 352.73,349 27.8,0 0,-271.13 -27.8,0 0,271.13 z"
       style="fill:#5555ff;fill-opacity:1;fill-rule:nonzero;stroke:none"
       id="path3990" /><path
       d="m 395.35,351.59 27.801,0 0,-273.72 -27.801,0 0,273.72 z"
       style="fill:#55ff55;fill-opacity:1;fill-rule:nonzero;stroke:none"
       id="path3992" /><path
       d="m 437.97,352.15 27.79,0 0,-274.28 -27.79,0 0,274.28 z"
       style="fill:#ffff55;fill-opacity:1;fill-rule:nonzero;stroke:none"
       id="path3994" /></g></svg>