<?xml version="1.0" encoding="UTF-8" standalone="no"?>
<!-- Created with Inkscape (http://www.inkscape.org/) -->

<svg
   xmlns:dc="http://purl.org/dc/elements/1.1/"
   xmlns:cc="http://creativecommons.org/ns#"
   xmlns:rdf="http://www.w3.org/1999/02/22-rdf-syntax-ns#"
   xmlns:svg="http://www.w3.org/2000/svg"
   xmlns="http://www.w3.org/2000/svg"
   xmlns:sodipodi="http://sodipodi.sourceforge.net/DTD/sodipodi-0.dtd"
   xmlns:inkscape="http://www.inkscape.org/namespaces/inkscape"
   id="svg4320"
   version="1.1"
   inkscape:version="0.48.3.1 r9886"
   width="529.79"
   height="259.7475"
   xml:space="preserve"
   sodipodi:docname="ipa.pdf"><metadata
     id="metadata4326"><rdf:RDF><cc:Work
         rdf:about=""><dc:format>image/svg+xml</dc:format><dc:type
           rdf:resource="http://purl.org/dc/dcmitype/StillImage" /><dc:title></dc:title></cc:Work></rdf:RDF></metadata><defs
     id="defs4324"><clipPath
       clipPathUnits="userSpaceOnUse"
       id="clipPath4382"><path
         d="m 0,207.798 423.832,0 L 423.832,0 0,0 0,207.798 z"
         id="path4384" /></clipPath><clipPath
       clipPathUnits="userSpaceOnUse"
       id="clipPath4418"><path
         d="m 0,207.798 423.832,0 L 423.832,0 0,0 0,207.798 z"
         id="path4420" /></clipPath></defs><sodipodi:namedview
     pagecolor="#ffffff"
     bordercolor="#666666"
     borderopacity="1"
     objecttolerance="10"
     gridtolerance="10"
     guidetolerance="10"
     inkscape:pageopacity="0"
     inkscape:pageshadow="2"
     inkscape:window-width="640"
     inkscape:window-height="480"
     id="namedview4322"
     showgrid="false"
     inkscape:zoom="0.6115631"
     inkscape:cx="264.89499"
     inkscape:cy="129.87375"
     inkscape:window-x="207"
     inkscape:window-y="222"
     inkscape:window-maximized="0"
     inkscape:current-layer="g4328" /><g
     id="g4328"
     inkscape:groupmode="layer"
     inkscape:label="ipa"
     transform="matrix(1.25,0,0,-1.25,0,259.7475)"><text
       transform="matrix(1,0,0,-1,19.5,24.9644)"
       id="text4330"><tspan
         style="fill:#231f20;fill-opacity:1;fill-rule:nonzero;stroke:none;font-family:Monaco;font-variant:normal;font-weight:normal;font-stretch:normal;font-size:20.0776;writing-mode:lr;-inkscape-font-specification:Monaco"
         x="0 12.04656"
         y="0"
         sodipodi:role="line"
         id="tspan4332">b </tspan></text>
<text
       transform="matrix(1,0,0,-1,43.59312,24.9644)"
       id="text4334"><tspan
         style="fill:#656263;fill-opacity:1;fill-rule:nonzero;stroke:none;font-family:Myriad Pro;font-variant:normal;font-weight:normal;font-stretch:normal;font-size:20.0776;writing-mode:lr;-inkscape-font-specification:MyriadPro-Regular"
         x="0 9.9986448 19.5555824 26.201268 32.6662552 42.3436584 51.599432 58.124652 68.1835296 79.507296 83.7637472 92.6380464 103.6606488 114.7234064 121.2486264 131.2472712 140.8042088 147.4498944"
         y="0"
         sodipodi:role="line"
         id="tspan4336">extracted context:</tspan></text>
<text
       transform="matrix(1,0,0,-1,207.24564,24.9644)"
       id="text4338"><tspan
         style="fill:#231f20;fill-opacity:1;fill-rule:nonzero;stroke:none;font-family:Monaco;font-variant:normal;font-weight:normal;font-stretch:normal;font-size:20.0776;writing-mode:lr;-inkscape-font-specification:Monaco"
         x="0 12.04656"
         y="0"
         sodipodi:role="line"
         id="tspan4340">-a</tspan></text>
<text
       transform="matrix(1,0,0,-1,231.33876,24.9644)"
       id="text4342"><tspan
         style="fill:#656263;fill-opacity:1;fill-rule:nonzero;stroke:none;font-family:Myriad Pro;font-variant:normal;font-weight:normal;font-stretch:normal;font-size:20.0776;writing-mode:lr;-inkscape-font-specification:MyriadPro-Regular"
         x="0 4.1560632 14.455872 18.6119352"
         y="0"
         sodipodi:role="line"
         id="tspan4344">:0.5</tspan></text>
<text
       transform="matrix(1,0,0,-1,272.29706,24.9644)"
       id="text4346"><tspan
         style="fill:#231f20;fill-opacity:1;fill-rule:nonzero;stroke:none;font-family:Monaco;font-variant:normal;font-weight:normal;font-stretch:normal;font-size:20.0776;writing-mode:lr;-inkscape-font-specification:Monaco"
         x="0"
         y="0"
         id="tspan4348">b</tspan></text>
<text
       transform="matrix(1,0,0,-1,284.34362,24.9644)"
       id="text4350"><tspan
         style="fill:#656263;fill-opacity:1;fill-rule:nonzero;stroke:none;font-family:Myriad Pro;font-variant:normal;font-weight:normal;font-stretch:normal;font-size:20.0776;writing-mode:lr;-inkscape-font-specification:MyriadPro-Regular"
         x="0 4.1560632 14.455872 18.6119352"
         y="0"
         sodipodi:role="line"
         id="tspan4352">:1.0</tspan></text>
<text
       transform="matrix(1,0,0,-1,325.30193,24.9644)"
       id="text4354"><tspan
         style="fill:#231f20;fill-opacity:1;fill-rule:nonzero;stroke:none;font-family:Monaco;font-variant:normal;font-weight:normal;font-stretch:normal;font-size:20.0776;writing-mode:lr;-inkscape-font-specification:Monaco"
         x="0"
         y="0"
         id="tspan4356">+</tspan></text>
<text
       transform="matrix(1,0,0,-1,337.3623,24.9644)"
       id="text4358"><tspan
         style="fill:#231f20;fill-opacity:1;fill-rule:nonzero;stroke:none;font-family:Monaco;font-variant:normal;font-weight:normal;font-stretch:normal;font-size:20;writing-mode:lr;-inkscape-font-specification:Monaco"
         x="0"
         y="0"
         id="tspan4360">ɪ</tspan></text>
<text
       transform="matrix(1,0,0,-1,349.3643,24.9644)"
       id="text4362"><tspan
         style="fill:#656263;fill-opacity:1;fill-rule:nonzero;stroke:none;font-family:Myriad Pro;font-variant:normal;font-weight:normal;font-stretch:normal;font-size:20.0776;writing-mode:lr;-inkscape-font-specification:MyriadPro-Regular"
         x="0 4.1560632 14.455872 18.6119352"
         y="0"
         sodipodi:role="line"
         id="tspan4364">:0.5</tspan></text>
<path
       d="m 100.167,66.398 -19,0 0,73.917 19,0 0,-73.917 z"
       style="fill:#96bce7;fill-opacity:1;fill-rule:nonzero;stroke:none"
       id="path4366" /><g
       id="g4368"
       transform="translate(328.167,66.0649)"><path
         d="m 0,0 -55.813,0.333 0,73.917 L 0,73.917 0,0 z"
         style="fill:#96bce7;fill-opacity:1;fill-rule:nonzero;stroke:none"
         id="path4370" /></g><g
       id="g4372"
       transform="translate(290.167,66.5024)"><path
         d="m 0,0 -21.646,-0.104 0,73.917 L 0,73.917 0,0 z"
         style="fill:#cce310;fill-opacity:1;fill-rule:nonzero;stroke:none"
         id="path4374" /></g><path
       d="m 328.167,66.231 21.646,0 0,73.917 -21.646,0 0,-73.917 z"
       style="fill:#eb8c50;fill-opacity:1;fill-rule:nonzero;stroke:none"
       id="path4376" /><g
       id="g4378"><g
         id="g4380"
         clip-path="url(#clipPath4382)"><text
           transform="matrix(1,0,0,-1,-34.5938,69.8252)"
           id="text4386"><tspan
             style="fill:#ffffff;fill-opacity:1;fill-rule:nonzero;stroke:none;font-family:Monaco;font-variant:normal;font-weight:normal;font-stretch:normal;font-size:31.9987;writing-mode:lr;-inkscape-font-specification:Monaco"
             x="0 19.19922 38.39844 57.59766 76.79688 95.9961 115.19532 134.39454 153.59376"
             y="0"
             sodipodi:role="line"
             id="tspan4388">0 1 2 3 4</tspan></text>
<g
           id="g4390"
           transform="translate(-31.3047,91.3164)"><path
             d="m 0,0 c -1.453,-2.318 -2.18,-5.44 -2.18,-9.367 0,-3.937 0.727,-7.065 2.18,-9.382 1.453,-2.318 3.554,-3.477 6.304,-3.477 2.76,0 4.864,1.159 6.313,3.477 1.447,2.317 2.171,5.445 2.171,9.382 0,3.927 -0.724,7.049 -2.171,9.367 C 11.168,2.318 9.064,3.477 6.304,3.477 3.554,3.477 1.453,2.318 0,0 z m 1.039,-11.379 c -0.042,0.781 -0.062,1.51 -0.062,2.187 0,2.967 0.452,5.418 1.356,7.349 0.905,1.932 2.225,2.898 3.961,2.898 0.666,0 1.308,-0.169 1.927,-0.508 0.618,-0.338 1.193,-0.991 1.723,-1.959 L 1.569,-14.55 c -0.312,1.333 -0.489,2.39 -0.53,3.171 z m 10.593,2.262 c 0,-2.697 -0.416,-5.154 -1.248,-7.366 -0.832,-2.214 -2.236,-3.321 -4.212,-3.321 -0.718,0 -1.368,0.19 -1.951,0.571 -0.582,0.379 -1.097,0.95 -1.544,1.711 l 8.316,13.218 c 0.426,-1.542 0.639,-3.146 0.639,-4.813 z"
             style="fill:none;stroke:#ffffff;stroke-opacity:1;stroke-width:3;stroke-linecap:butt;stroke-linejoin:miter;stroke-miterlimit:10;stroke-dasharray:none"
             id="path4392" /></g><g
           id="g4394"
           transform="translate(6.748,72.2471)"><path
             d="m 0,0 0,-2.422 14.671,0 0,2.422 -5.827,0 0,21.827 -2.906,0 C 4.26,20.286 2.281,19.03 0,18.062 l 0,-2.625 c 1.438,0.507 2.567,1.005 3.391,1.493 0.822,0.487 1.672,1.078 2.547,1.773 L 5.938,0 0,0 z"
             style="fill:none;stroke:#ffffff;stroke-opacity:1;stroke-width:3;stroke-linecap:butt;stroke-linejoin:miter;stroke-miterlimit:10;stroke-dasharray:none"
             id="path4396" /></g><g
           id="g4398"
           transform="translate(59.2148,72.4971)"><path
             d="m 0,0 -11.655,0 c 0.062,1.239 0.384,2.307 0.967,3.203 0.582,0.896 1.346,1.822 2.293,2.781 l 1.499,1.469 1.78,1.765 c 1.831,1.802 3.08,3.276 3.744,4.422 0.665,1.146 0.997,2.265 0.997,3.359 0,0.979 -0.258,1.901 -0.773,2.766 -0.516,0.864 -1.302,1.502 -2.36,1.914 -1.056,0.411 -2.216,0.617 -3.475,0.617 -0.855,0 -1.941,-0.117 -3.258,-0.352 -1.319,-0.234 -2.633,-0.664 -3.946,-1.289 l 0,-2.578 c 1.238,0.563 2.132,0.935 2.684,1.117 0.551,0.182 1.193,0.342 1.927,0.477 0.733,0.135 1.396,0.203 1.989,0.203 1.04,0 1.976,-0.284 2.808,-0.852 0.832,-0.567 1.248,-1.372 1.248,-2.414 0,-0.646 -0.179,-1.302 -0.538,-1.968 -0.359,-0.667 -1.099,-1.625 -2.222,-2.875 -1.123,-1.25 -1.851,-2.047 -2.184,-2.39 L -10.127,7.687 C -11.011,6.781 -11.849,5.838 -12.641,4.859 -13.432,3.88 -13.968,2.997 -14.249,2.211 -14.53,1.424 -14.671,0.688 -14.671,0 l 0,-2.672 L 0,-2.672 0,0 z"
             style="fill:none;stroke:#ffffff;stroke-opacity:1;stroke-width:3;stroke-linecap:butt;stroke-linejoin:miter;stroke-miterlimit:10;stroke-dasharray:none"
             id="path4400" /></g><g
           id="g4402"
           transform="translate(86.2217,69.2627)"><path
             d="m 0,0 c 0.911,-0.114 1.752,-0.172 2.523,-0.172 2.666,0 4.841,0.739 6.523,2.219 1.683,1.479 2.523,3.354 2.523,5.624 0,1.021 -0.184,1.943 -0.554,2.766 -0.369,0.823 -0.914,1.537 -1.633,2.141 -0.719,0.604 -1.781,1.114 -3.187,1.531 1.593,0.76 2.687,1.625 3.281,2.594 0.593,0.968 0.89,2.005 0.89,3.109 0,1.489 -0.559,2.814 -1.679,3.976 -1.12,1.161 -3.154,1.742 -6.101,1.742 -1.647,0 -3.459,-0.37 -5.438,-1.109 l 0,-2.766 c 1.979,0.969 3.829,1.453 5.547,1.453 1.532,0 2.666,-0.346 3.407,-1.039 C 6.841,21.376 7.21,20.525 7.21,19.515 7.21,18.4 6.757,17.387 5.852,16.476 4.945,15.564 3.477,15.109 1.445,15.109 l -2.234,0 0,-2.422 1.609,0 c 2.76,0 4.716,-0.484 5.867,-1.453 C 7.838,10.265 8.413,9.01 8.413,7.468 8.413,5.938 7.89,4.685 6.843,3.711 5.797,2.737 4.471,2.25 2.867,2.25 c -1.75,0 -3.818,0.604 -6.203,1.813 L -3.336,1 C -2.023,0.448 -0.912,0.115 0,0 z"
             style="fill:none;stroke:#ffffff;stroke-opacity:1;stroke-width:3;stroke-linecap:butt;stroke-linejoin:miter;stroke-miterlimit:10;stroke-dasharray:none"
             id="path4404" /></g><g
           id="g4406"
           transform="translate(132.9932,69.8252)"><path
             d="m 0,0 0,6.781 4.484,0 0,2.422 -4.484,0 0,15.046 -2.905,0 -10.313,-15.046 0,-2.422 10.313,0 L -2.905,0 0,0 z m -10.124,9.203 7.219,10.643 0,-10.643 -7.219,0 z"
             style="fill:none;stroke:#ffffff;stroke-opacity:1;stroke-width:3;stroke-linecap:butt;stroke-linejoin:miter;stroke-miterlimit:10;stroke-dasharray:none"
             id="path4408" /></g></g></g><text
       transform="matrix(1,0,0,-1,224.6562,69.8252)"
       id="text4410"><tspan
         style="fill:#ffffff;fill-opacity:1;fill-rule:nonzero;stroke:none;font-family:Monaco;font-variant:normal;font-weight:normal;font-stretch:normal;font-size:31.9987;writing-mode:lr;-inkscape-font-specification:Monaco"
         x="0 19.19922 38.39844 57.59766 76.79688 95.9961 115.19532 134.39454 153.59376"
         y="0"
         sodipodi:role="line"
         id="tspan4412">0 1 2 3 4</tspan></text>
<g
       id="g4414"><g
         id="g4416"
         clip-path="url(#clipPath4418)"><g
           id="g4422"
           transform="translate(227.9453,91.3164)"><path
             d="m 0,0 c -1.453,-2.318 -2.18,-5.44 -2.18,-9.367 0,-3.937 0.727,-7.065 2.18,-9.382 1.453,-2.318 3.554,-3.477 6.304,-3.477 2.76,0 4.864,1.159 6.313,3.477 1.447,2.317 2.171,5.445 2.171,9.382 0,3.927 -0.724,7.049 -2.171,9.367 C 11.168,2.318 9.064,3.477 6.304,3.477 3.554,3.477 1.453,2.318 0,0 z m 1.039,-11.379 c -0.042,0.781 -0.062,1.51 -0.062,2.187 0,2.967 0.452,5.418 1.356,7.349 0.905,1.932 2.225,2.898 3.961,2.898 0.666,0 1.308,-0.169 1.927,-0.508 0.618,-0.338 1.193,-0.991 1.723,-1.959 L 1.569,-14.55 c -0.312,1.333 -0.489,2.39 -0.53,3.171 z m 10.593,2.262 c 0,-2.697 -0.416,-5.154 -1.248,-7.366 -0.832,-2.214 -2.236,-3.321 -4.212,-3.321 -0.718,0 -1.368,0.19 -1.951,0.571 -0.582,0.379 -1.097,0.95 -1.544,1.711 l 8.316,13.218 c 0.426,-1.542 0.639,-3.146 0.639,-4.813 z"
             style="fill:none;stroke:#ffffff;stroke-opacity:1;stroke-width:3;stroke-linecap:butt;stroke-linejoin:miter;stroke-miterlimit:10;stroke-dasharray:none"
             id="path4424" /></g><g
           id="g4426"
           transform="translate(265.998,72.2471)"><path
             d="m 0,0 0,-2.422 14.671,0 0,2.422 -5.827,0 0,21.827 -2.906,0 C 4.26,20.286 2.281,19.03 0,18.062 l 0,-2.625 c 1.438,0.507 2.567,1.005 3.391,1.493 0.822,0.487 1.672,1.078 2.547,1.773 L 5.938,0 0,0 z"
             style="fill:none;stroke:#ffffff;stroke-opacity:1;stroke-width:3;stroke-linecap:butt;stroke-linejoin:miter;stroke-miterlimit:10;stroke-dasharray:none"
             id="path4428" /></g><g
           id="g4430"
           transform="translate(318.4648,72.4971)"><path
             d="m 0,0 -11.655,0 c 0.062,1.239 0.384,2.307 0.967,3.203 0.582,0.896 1.346,1.822 2.293,2.781 l 1.499,1.469 1.78,1.765 c 1.831,1.802 3.08,3.276 3.744,4.422 0.665,1.146 0.997,2.265 0.997,3.359 0,0.979 -0.258,1.901 -0.773,2.766 -0.516,0.864 -1.302,1.502 -2.36,1.914 -1.056,0.411 -2.216,0.617 -3.475,0.617 -0.855,0 -1.941,-0.117 -3.258,-0.352 -1.319,-0.234 -2.633,-0.664 -3.946,-1.289 l 0,-2.578 c 1.238,0.563 2.132,0.935 2.684,1.117 0.551,0.182 1.193,0.342 1.927,0.477 0.733,0.135 1.396,0.203 1.989,0.203 1.04,0 1.976,-0.284 2.808,-0.852 0.832,-0.567 1.248,-1.372 1.248,-2.414 0,-0.646 -0.179,-1.302 -0.538,-1.968 -0.359,-0.667 -1.099,-1.625 -2.222,-2.875 -1.123,-1.25 -1.851,-2.047 -2.184,-2.39 L -10.127,7.687 C -11.011,6.781 -11.849,5.838 -12.641,4.859 -13.432,3.88 -13.968,2.997 -14.249,2.211 -14.53,1.424 -14.671,0.688 -14.671,0 l 0,-2.672 L 0,-2.672 0,0 z"
             style="fill:none;stroke:#ffffff;stroke-opacity:1;stroke-width:3;stroke-linecap:butt;stroke-linejoin:miter;stroke-miterlimit:10;stroke-dasharray:none"
             id="path4432" /></g><g
           id="g4434"
           transform="translate(345.4717,69.2627)"><path
             d="m 0,0 c 0.911,-0.114 1.752,-0.172 2.523,-0.172 2.666,0 4.841,0.739 6.523,2.219 1.683,1.479 2.523,3.354 2.523,5.624 0,1.021 -0.184,1.943 -0.554,2.766 -0.369,0.823 -0.914,1.537 -1.633,2.141 -0.719,0.604 -1.781,1.114 -3.187,1.531 1.593,0.76 2.687,1.625 3.281,2.594 0.593,0.968 0.89,2.005 0.89,3.109 0,1.489 -0.559,2.814 -1.679,3.976 -1.12,1.161 -3.154,1.742 -6.101,1.742 -1.647,0 -3.459,-0.37 -5.438,-1.109 l 0,-2.766 c 1.979,0.969 3.829,1.453 5.547,1.453 1.532,0 2.666,-0.346 3.407,-1.039 C 6.841,21.376 7.21,20.525 7.21,19.515 7.21,18.4 6.757,17.387 5.852,16.476 4.945,15.564 3.477,15.109 1.445,15.109 l -2.234,0 0,-2.422 1.609,0 c 2.76,0 4.716,-0.484 5.867,-1.453 C 7.838,10.265 8.413,9.01 8.413,7.468 8.413,5.938 7.89,4.685 6.843,3.711 5.797,2.737 4.471,2.25 2.867,2.25 c -1.75,0 -3.818,0.604 -6.203,1.813 L -3.336,1 C -2.023,0.448 -0.912,0.115 0,0 z"
             style="fill:none;stroke:#ffffff;stroke-opacity:1;stroke-width:3;stroke-linecap:butt;stroke-linejoin:miter;stroke-miterlimit:10;stroke-dasharray:none"
             id="path4436" /></g><g
           id="g4438"
           transform="translate(392.2432,69.8252)"><path
             d="m 0,0 0,6.781 4.484,0 0,2.422 -4.484,0 0,15.046 -2.905,0 -10.313,-15.046 0,-2.422 10.313,0 L -2.905,0 0,0 z m -10.124,9.203 7.219,10.643 0,-10.643 -7.219,0 z"
             style="fill:none;stroke:#ffffff;stroke-opacity:1;stroke-width:3;stroke-linecap:butt;stroke-linejoin:miter;stroke-miterlimit:10;stroke-dasharray:none"
             id="path4440" /></g></g></g><text
       transform="matrix(1,0,0,-1,22.499,108.6987)"
       id="text4442"><tspan
         style="fill:#231f20;fill-opacity:1;fill-rule:nonzero;stroke:none;font-family:Monaco;font-variant:normal;font-weight:normal;font-stretch:normal;font-size:31.9987;writing-mode:lr;-inkscape-font-specification:Monaco"
         x="0 19.19922 38.39844 57.59766 76.79688 95.9961 115.19532"
         y="0"
         sodipodi:role="line"
         id="tspan4444">cabbage</tspan><tspan
         style="fill:#d3d2d2;fill-opacity:1;fill-rule:nonzero;stroke:none;font-family:Monaco;font-variant:normal;font-weight:normal;font-stretch:normal;font-size:31.9987;writing-mode:lr;-inkscape-font-specification:Monaco"
         x="0 19.19922 38.39844 57.59766 76.79688 95.9961 115.19532"
         y="38.39844"
         sodipodi:role="line"
         id="tspan4446">0123456</tspan></text>
<text
       transform="matrix(1,0,0,-1,212.47528,108.6987)"
       id="text4448"><tspan
         style="fill:#231f20;fill-opacity:1;fill-rule:nonzero;stroke:none;font-family:Monaco;font-variant:normal;font-weight:normal;font-stretch:normal;font-size:31.9987;writing-mode:lr;-inkscape-font-specification:Monaco"
         x="0 19.19922"
         y="0"
         sodipodi:role="line"
         id="tspan4450">ˈk</tspan></text>
<text
       transform="matrix(1,0,0,-1,223.99481,70.30026)"
       id="text4452"><tspan
         style="fill:#d3d2d2;fill-opacity:1;fill-rule:nonzero;stroke:none;font-family:Monaco;font-variant:normal;font-weight:normal;font-stretch:normal;font-size:31.9987;writing-mode:lr;-inkscape-font-specification:Monaco"
         x="0 19.19922 38.39844 57.59766 76.79688 95.9961 115.19532 134.39454 153.59376"
         y="0"
         sodipodi:role="line"
         id="tspan4454">0 1 2 3 4</tspan></text>
<text
       transform="matrix(1,0,0,-1,261.667,108.0649)"
       id="text4456"><tspan
         style="fill:#231f20;fill-opacity:1;fill-rule:nonzero;stroke:none;font-family:Monaco;font-variant:normal;font-weight:normal;font-stretch:normal;font-size:32;writing-mode:lr;-inkscape-font-specification:Monaco"
         x="0 37.824"
         y="0"
         sodipodi:role="line"
         id="tspan4458">ab</tspan></text>
<text
       transform="matrix(1,0,0,-1,337.667,108.3209)"
       id="text4460"><tspan
         style="fill:#231f20;fill-opacity:1;fill-rule:nonzero;stroke:none;font-family:Monaco;font-variant:normal;font-weight:normal;font-stretch:normal;font-size:32;writing-mode:lr;-inkscape-font-specification:Monaco"
         x="0"
         y="0"
         id="tspan4462">ɪ</tspan><tspan
         style="fill:#231f20;fill-opacity:1;fill-rule:nonzero;stroke:none;font-family:Monaco;font-variant:normal;font-weight:normal;font-stretch:normal;font-size:32;writing-mode:lr;-inkscape-font-specification:Monaco"
         x="27.744 46.944"
         y="0.256"
         sodipodi:role="line"
         id="tspan4464">dʒ</tspan></text>
<g
       id="g4466"
       transform="translate(90.6669,140.3154)"><path
         d="M 0,0 0,12.333 0,0 z"
         style="fill:#231f20;fill-opacity:1;fill-rule:nonzero;stroke:none"
         id="path4468" /></g><g
       id="g4470"
       transform="translate(90.667,152.6484)"><path
         d="M 0,0 0,-12.333"
         style="fill:none;stroke:#231f20;stroke-opacity:1;stroke-width:1;stroke-linecap:butt;stroke-linejoin:miter;stroke-miterlimit:10;stroke-dasharray:none"
         id="path4472" /></g><g
       id="g4474"
       transform="translate(385.167,98.3979)"><path
         d="m 0,0 -19,0 0,37.833 19,0"
         style="fill:none;stroke:#a7a5a6;stroke-opacity:1;stroke-width:1;stroke-linecap:butt;stroke-linejoin:miter;stroke-miterlimit:10;stroke-dasharray:none"
         id="path4476" /></g><g
       id="g4478"
       transform="translate(385.167,136.2314)"><path
         d="m 0,0 19,0 0,-37.833 -19,0"
         style="fill:none;stroke:#a7a5a6;stroke-opacity:1;stroke-width:1;stroke-linecap:butt;stroke-linejoin:miter;stroke-miterlimit:10;stroke-dasharray:none"
         id="path4480" /></g><g
       id="g4482"
       transform="translate(347.167,136.2314)"><path
         d="m 0,0 19,0 0,-37.833 -19,0"
         style="fill:none;stroke:#a7a5a6;stroke-opacity:1;stroke-width:1;stroke-linecap:butt;stroke-linejoin:miter;stroke-miterlimit:10;stroke-dasharray:none"
         id="path4484" /></g><g
       id="g4486"
       transform="translate(347.167,98.3979)"><path
         d="M 0,0 -19,0"
         style="fill:none;stroke:#a7a5a6;stroke-opacity:1;stroke-width:1;stroke-linecap:butt;stroke-linejoin:miter;stroke-miterlimit:10;stroke-dasharray:none"
         id="path4488" /></g><g
       id="g4490"
       transform="translate(328.167,136.2314)"><path
         d="M 0,0 19,0"
         style="fill:none;stroke:#a7a5a6;stroke-opacity:1;stroke-width:1;stroke-linecap:butt;stroke-linejoin:miter;stroke-miterlimit:10;stroke-dasharray:none"
         id="path4492" /></g><g
       id="g4494"
       transform="translate(309.167,136.2314)"><path
         d="M 0,0 19,0"
         style="fill:none;stroke:#a7a5a6;stroke-opacity:1;stroke-width:1;stroke-linecap:butt;stroke-linejoin:miter;stroke-miterlimit:10;stroke-dasharray:none"
         id="path4496" /></g><g
       id="g4498"
       transform="translate(328.167,98.3979)"><path
         d="M 0,0 -19,0"
         style="fill:none;stroke:#a7a5a6;stroke-opacity:1;stroke-width:1;stroke-linecap:butt;stroke-linejoin:miter;stroke-miterlimit:10;stroke-dasharray:none"
         id="path4500" /></g><g
       id="g4502"
       transform="translate(309.167,98.3979)"><path
         d="m 0,0 -19,0 0,37.833 19,0"
         style="fill:none;stroke:#a7a5a6;stroke-opacity:1;stroke-width:1;stroke-linecap:butt;stroke-linejoin:miter;stroke-miterlimit:10;stroke-dasharray:none"
         id="path4504" /></g><g
       id="g4506"
       transform="translate(271.167,136.2314)"><path
         d="m 0,0 19,0 0,-37.833 -19,0"
         style="fill:none;stroke:#a7a5a6;stroke-opacity:1;stroke-width:1;stroke-linecap:butt;stroke-linejoin:miter;stroke-miterlimit:10;stroke-dasharray:none"
         id="path4508" /></g><g
       id="g4510"
       transform="translate(271.167,98.3979)"><path
         d="m 0,0 -19,0 0,37.833 19,0"
         style="fill:none;stroke:#a7a5a6;stroke-opacity:1;stroke-width:1;stroke-linecap:butt;stroke-linejoin:miter;stroke-miterlimit:10;stroke-dasharray:none"
         id="path4512" /></g><g
       id="g4514"
       transform="translate(233.167,136.2314)"><path
         d="m 0,0 19,0 0,-37.833 -19,0"
         style="fill:none;stroke:#a7a5a6;stroke-opacity:1;stroke-width:1;stroke-linecap:butt;stroke-linejoin:miter;stroke-miterlimit:10;stroke-dasharray:none"
         id="path4516" /></g><g
       id="g4518"
       transform="translate(233.167,98.3979)"><path
         d="m 0,0 -19,0 0,37.833 19,0"
         style="fill:none;stroke:#a7a5a6;stroke-opacity:1;stroke-width:1;stroke-linecap:butt;stroke-linejoin:miter;stroke-miterlimit:10;stroke-dasharray:none"
         id="path4520" /></g><path
       d="m 157.167,98.398 -19,0 0,37.833 19,0 0,-37.833 z"
       style="fill:none;stroke:#a7a5a6;stroke-opacity:1;stroke-width:1;stroke-linecap:butt;stroke-linejoin:miter;stroke-miterlimit:10;stroke-dasharray:none"
       id="path4522" /><path
       d="m 138.167,98.398 -19,0 0,37.833 19,0 0,-37.833 z"
       style="fill:none;stroke:#a7a5a6;stroke-opacity:1;stroke-width:1;stroke-linecap:butt;stroke-linejoin:miter;stroke-miterlimit:10;stroke-dasharray:none"
       id="path4524" /><path
       d="m 119.167,98.398 -19,0 0,37.833 19,0 0,-37.833 z"
       style="fill:none;stroke:#a7a5a6;stroke-opacity:1;stroke-width:1;stroke-linecap:butt;stroke-linejoin:miter;stroke-miterlimit:10;stroke-dasharray:none"
       id="path4526" /><path
       d="m 100.167,98.398 -19,0 0,37.833 19,0 0,-37.833 z"
       style="fill:none;stroke:#a7a5a6;stroke-opacity:1;stroke-width:1;stroke-linecap:butt;stroke-linejoin:miter;stroke-miterlimit:10;stroke-dasharray:none"
       id="path4528" /><path
       d="m 81.167,98.398 -19,0 0,37.833 19,0 0,-37.833 z"
       style="fill:none;stroke:#a7a5a6;stroke-opacity:1;stroke-width:1;stroke-linecap:butt;stroke-linejoin:miter;stroke-miterlimit:10;stroke-dasharray:none"
       id="path4530" /><path
       d="m 62.167,98.398 -19,0 0,37.833 19,0 0,-37.833 z"
       style="fill:none;stroke:#a7a5a6;stroke-opacity:1;stroke-width:1;stroke-linecap:butt;stroke-linejoin:miter;stroke-miterlimit:10;stroke-dasharray:none"
       id="path4532" /><path
       d="m 43.167,98.398 -19,0 0,37.833 19,0 0,-37.833 z"
       style="fill:none;stroke:#a7a5a6;stroke-opacity:1;stroke-width:1;stroke-linecap:butt;stroke-linejoin:miter;stroke-miterlimit:10;stroke-dasharray:none"
       id="path4534" /><g
       id="g4536"
       transform="translate(81.167,140.3154)"><path
         d="M 0,0 19,0"
         style="fill:none;stroke:#231f20;stroke-opacity:1;stroke-width:1;stroke-linecap:butt;stroke-linejoin:miter;stroke-miterlimit:10;stroke-dasharray:none"
         id="path4538" /></g><g
       id="g4540"
       transform="translate(309.1671,140.3154)"><path
         d="M 0,0 0,12.333 0,0 z"
         style="fill:#231f20;fill-opacity:1;fill-rule:nonzero;stroke:none"
         id="path4542" /></g><g
       id="g4544"
       transform="translate(309.167,152.6484)"><path
         d="M 0,0 0,-12.333"
         style="fill:none;stroke:#231f20;stroke-opacity:1;stroke-width:1;stroke-linecap:butt;stroke-linejoin:miter;stroke-miterlimit:10;stroke-dasharray:none"
         id="path4546" /></g><g
       id="g4548"
       transform="translate(268.5215,140.3154)"><path
         d="M 0,0 81.291,0"
         style="fill:none;stroke:#231f20;stroke-opacity:1;stroke-width:1;stroke-linecap:butt;stroke-linejoin:miter;stroke-miterlimit:10;stroke-dasharray:none"
         id="path4550" /></g><text
       transform="matrix(1,0,0,-1,75,164.0649)"
       id="text4552"><tspan
         style="fill:#231f20;fill-opacity:1;fill-rule:nonzero;stroke:none;font-family:Monaco;font-variant:normal;font-weight:normal;font-stretch:normal;font-size:18;writing-mode:lr;-inkscape-font-specification:Monaco"
         x="0 10.8 21.6 217.674 228.474 239.274 63.18 73.98 95.58 106.38 117.18 127.98 138.78 149.58 171.18 181.98"
         y="0"
         sodipodi:role="line"
         id="tspan4554">3.52.5÷ 7 × 5 = </tspan></text>
<g
       id="g4556"
       transform="translate(328.167,98.3979)"><path
         d="M 0,0 0,37.833"
         style="fill:none;stroke:#a7a5a6;stroke-opacity:1;stroke-width:1;stroke-linecap:butt;stroke-linejoin:miter;stroke-miterlimit:10;stroke-dasharray:none"
         id="path4558" /></g><g
       id="g4560"
       transform="translate(328.167,136.2314)"><path
         d="M 0,0 0,-37.833"
         style="fill:none;stroke:#a7a5a6;stroke-opacity:1;stroke-width:1;stroke-linecap:butt;stroke-linejoin:miter;stroke-miterlimit:10;stroke-dasharray:none"
         id="path4562" /></g></g></svg>