<?xml version="1.0" encoding="UTF-8" standalone="no"?>
<!-- Created with Inkscape (http://www.inkscape.org/) -->

<svg
   xmlns:dc="http://purl.org/dc/elements/1.1/"
   xmlns:cc="http://creativecommons.org/ns#"
   xmlns:rdf="http://www.w3.org/1999/02/22-rdf-syntax-ns#"
   xmlns:svg="http://www.w3.org/2000/svg"
   xmlns="http://www.w3.org/2000/svg"
   xmlns:sodipodi="http://sodipodi.sourceforge.net/DTD/sodipodi-0.dtd"
   xmlns:inkscape="http://www.inkscape.org/namespaces/inkscape"
   id="svg3004"
   version="1.1"
   inkscape:version="0.48.3.1 r9886"
   width="624.375"
   height="411.25"
   xml:space="preserve"
   sodipodi:docname="trie.pdf"><metadata
     id="metadata3010"><rdf:RDF><cc:Work
         rdf:about=""><dc:format>image/svg+xml</dc:format><dc:type
           rdf:resource="http://purl.org/dc/dcmitype/StillImage" /><dc:title></dc:title></cc:Work></rdf:RDF></metadata><defs
     id="defs3008"><clipPath
       clipPathUnits="userSpaceOnUse"
       id="clipPath3070"><path
         d="m 0,329 499.5,0 0,-329 L 0,0 0,329 z"
         id="path3072" /></clipPath><clipPath
       clipPathUnits="userSpaceOnUse"
       id="clipPath3100"><path
         d="m 0,329 499.5,0 0,-329 L 0,0 0,329 z"
         id="path3102" /></clipPath></defs><sodipodi:namedview
     pagecolor="#ffffff"
     bordercolor="#666666"
     borderopacity="1"
     objecttolerance="10"
     gridtolerance="10"
     guidetolerance="10"
     inkscape:pageopacity="0"
     inkscape:pageshadow="2"
     inkscape:window-width="1064"
     inkscape:window-height="734"
     id="namedview3006"
     showgrid="false"
     inkscape:zoom="0.76783727"
     inkscape:cx="311.99067"
     inkscape:cy="203.62077"
     inkscape:window-x="0"
     inkscape:window-y="24"
     inkscape:window-maximized="0"
     inkscape:current-layer="g3012" /><g
     id="g3012"
     inkscape:groupmode="layer"
     inkscape:label="trie"
     transform="matrix(1.25,0,0,-1.25,0,411.25)"><g
       id="g3014"
       transform="translate(185.792,273.2656)"><path
         d="M 0,0 -34.19,-35.127"
         style="fill:none;stroke:#231f20;stroke-opacity:1;stroke-width:1;stroke-linecap:butt;stroke-linejoin:miter;stroke-miterlimit:10;stroke-dasharray:none"
         id="path3016" /></g><g
       id="g3018"
       transform="translate(135.2603,221.2861)"><path
         d="M 0,0 -36.72,-38.067"
         style="fill:none;stroke:#231f20;stroke-opacity:1;stroke-width:1;stroke-linecap:butt;stroke-linejoin:miter;stroke-miterlimit:10;stroke-dasharray:none"
         id="path3020" /></g><g
       id="g3022"
       transform="translate(83.3008,165.3311)"><path
         d="M 0,0 -33.301,-46.156"
         style="fill:none;stroke:#231f20;stroke-opacity:1;stroke-width:1;stroke-linecap:butt;stroke-linejoin:miter;stroke-miterlimit:10;stroke-dasharray:none"
         id="path3024" /></g><g
       id="g3026"
       transform="translate(99.1694,165.3311)"><path
         d="M 0,0 27.012,-46.686"
         style="fill:none;stroke:#231f20;stroke-opacity:1;stroke-width:1;stroke-linecap:butt;stroke-linejoin:miter;stroke-miterlimit:10;stroke-dasharray:none"
         id="path3028" /></g><g
       id="g3030"
       transform="translate(202.4863,273.2656)"><path
         d="M 0,0 38.04,-33.085"
         style="fill:none;stroke:#231f20;stroke-opacity:1;stroke-width:1;stroke-linecap:butt;stroke-linejoin:miter;stroke-miterlimit:10;stroke-dasharray:none"
         id="path3032" /></g><g
       id="g3034"
       transform="translate(246.8086,218.4692)"><path
         d="M 0,0 0,-32.704"
         style="fill:none;stroke:#231f20;stroke-opacity:1;stroke-width:1;stroke-linecap:butt;stroke-linejoin:miter;stroke-miterlimit:10;stroke-dasharray:none"
         id="path3036" /></g><g
       id="g3038"
       transform="translate(246.8086,162.2349)"><path
         d="M 0,0 -0.001,-42.06"
         style="fill:none;stroke:#231f20;stroke-opacity:1;stroke-width:1;stroke-linecap:butt;stroke-linejoin:miter;stroke-miterlimit:10;stroke-dasharray:none"
         id="path3040" /></g><g
       id="g3042"
       transform="translate(240.5259,94.1626)"><path
         d="M 0,0 -28.859,-34.632"
         style="fill:none;stroke:#231f20;stroke-opacity:1;stroke-width:1;stroke-linecap:butt;stroke-linejoin:miter;stroke-miterlimit:10;stroke-dasharray:none"
         id="path3044" /></g><g
       id="g3046"
       transform="translate(256.5073,96.6445)"><path
         d="M 0,0 25.605,-35.505"
         style="fill:none;stroke:#231f20;stroke-opacity:1;stroke-width:1;stroke-linecap:butt;stroke-linejoin:miter;stroke-miterlimit:10;stroke-dasharray:none"
         id="path3048" /></g><text
       transform="matrix(1,0,0,-1,148.251,255.7017)"
       id="text3050"><tspan
         style="fill:#231f20;fill-opacity:1;fill-rule:nonzero;stroke:none;font-family:Helvetica;font-variant:normal;font-weight:normal;font-stretch:normal;font-size:30;writing-mode:lr;-inkscape-font-specification:Helvetica"
         x="0"
         y="0"
         id="tspan3052">c</tspan><tspan
         style="fill:#231f20;fill-opacity:1;fill-rule:nonzero;stroke:none;font-family:Helvetica;font-variant:normal;font-weight:normal;font-stretch:normal;font-size:30;writing-mode:lr;-inkscape-font-specification:Helvetica"
         x="-57.03"
         y="52.95"
         id="tspan3054">a</tspan><tspan
         style="fill:#231f20;fill-opacity:1;fill-rule:nonzero;stroke:none;font-family:Helvetica;font-variant:normal;font-weight:normal;font-stretch:normal;font-size:30;writing-mode:lr;-inkscape-font-specification:Helvetica"
         x="-101.43 -25.53"
         y="116.01"
         sodipodi:role="line"
         id="tspan3056">rt</tspan><tspan
         style="fill:#231f20;fill-opacity:1;fill-rule:nonzero;stroke:none;font-family:Helvetica;font-variant:normal;font-weight:normal;font-stretch:normal;font-size:30;writing-mode:lr;-inkscape-font-specification:Helvetica"
         x="80.01"
         y="0"
         id="tspan3058">b</tspan><tspan
         style="fill:#231f20;fill-opacity:1;fill-rule:nonzero;stroke:none;font-family:Helvetica;font-variant:normal;font-weight:normal;font-stretch:normal;font-size:30;writing-mode:lr;-inkscape-font-specification:Helvetica"
         x="108.27"
         y="62.73"
         id="tspan3060">a</tspan><tspan
         style="fill:#231f20;fill-opacity:1;fill-rule:nonzero;stroke:none;font-family:Helvetica;font-variant:normal;font-weight:normal;font-stretch:normal;font-size:30;writing-mode:lr;-inkscape-font-specification:Helvetica"
         x="108.33"
         y="128.55"
         id="tspan3062">t</tspan><tspan
         style="fill:#231f20;fill-opacity:1;fill-rule:nonzero;stroke:none;font-family:Helvetica;font-variant:normal;font-weight:normal;font-stretch:normal;font-size:30;writing-mode:lr;-inkscape-font-specification:Helvetica"
         x="53.73 127.86"
         y="178.89"
         sodipodi:role="line"
         id="tspan3064">hs</tspan></text>
<g
       id="g3066"><g
         id="g3068"
         clip-path="url(#clipPath3070)"><g
           id="g3074"
           transform="translate(364.3428,201.4604)"><path
             d="m 0,0 c 0,-5.393 -4.372,-9.765 -9.766,-9.765 -5.393,0 -9.764,4.372 -9.764,9.765 0,5.394 4.371,9.766 9.764,9.766 C -4.372,9.766 0,5.394 0,0 z"
             style="fill:none;stroke:#231f20;stroke-opacity:1;stroke-width:1;stroke-linecap:butt;stroke-linejoin:miter;stroke-miterlimit:10;stroke-dasharray:none"
             id="path3076" /></g><g
           id="g3078"
           transform="translate(368.3428,201.4604)"><path
             d="m 0,0 c 0,-7.602 -6.163,-13.765 -13.766,-13.765 -7.602,0 -13.764,6.163 -13.764,13.765 0,7.603 6.162,13.766 13.764,13.766 C -6.163,13.766 0,7.603 0,0 z"
             style="fill:none;stroke:#231f20;stroke-opacity:1;stroke-width:1;stroke-linecap:butt;stroke-linejoin:miter;stroke-miterlimit:10;stroke-dasharray:none"
             id="path3080" /></g><g
           id="g3082"
           transform="translate(366.3428,238.7109)"><path
             d="m 0,0 c 0,-6.498 -5.268,-11.765 -11.765,-11.765 -6.498,0 -11.765,5.267 -11.765,11.765 0,6.498 5.267,11.766 11.765,11.766 C -5.268,11.766 0,6.498 0,0 z"
             style="fill:none;stroke:#231f20;stroke-opacity:1;stroke-width:1;stroke-linecap:butt;stroke-linejoin:miter;stroke-miterlimit:10;stroke-dasharray:none"
             id="path3084" /></g></g></g><text
       transform="matrix(1,0,0,-1,341.0225,272.7734)"
       id="text3086"><tspan
         style="fill:#231f20;fill-opacity:1;fill-rule:nonzero;stroke:none;font-family:Helvetica;font-variant:normal;font-weight:normal;font-stretch:normal;font-size:15.7325;writing-mode:lr;-inkscape-font-specification:Helvetica"
         x="0 10.4935775 19.2408475"
         y="0"
         sodipodi:role="line"
         id="tspan3088">Key</tspan></text>
<text
       transform="matrix(1,0,0,-1,378.5,233.5107)"
       id="text3090"><tspan
         style="fill:#231f20;fill-opacity:1;fill-rule:nonzero;stroke:none;font-family:Helvetica;font-variant:normal;font-weight:normal;font-stretch:normal;font-size:16.0361;writing-mode:lr;-inkscape-font-specification:Helvetica"
         x="0 11.5780642 20.4941358 29.4102074 34.7502287 42.7682787 51.6843503 57.0243716 70.3824429 73.9424571 82.8585287 91.7746003"
         y="0"
         sodipodi:role="line"
         id="tspan3092">Non-Terminal</tspan><tspan
         style="fill:#231f20;fill-opacity:1;fill-rule:nonzero;stroke:none;font-family:Helvetica;font-variant:normal;font-weight:normal;font-stretch:normal;font-size:16.0361;writing-mode:lr;-inkscape-font-specification:Helvetica"
         x="0 8.01805 16.9341216 22.2741429 35.6322142 39.1922284 48.1083 57.0243716"
         y="36.995283"
         sodipodi:role="line"
         id="tspan3094">Terminal</tspan></text>
<g
       id="g3096"><g
         id="g3098"
         clip-path="url(#clipPath3100)"><g
           id="g3104"
           transform="translate(205.9038,281.5547)"><path
             d="m 0,0 c 0,-6.498 -5.268,-11.765 -11.765,-11.765 -6.498,0 -11.765,5.267 -11.765,11.765 0,6.498 5.267,11.766 11.765,11.766 C -5.268,11.766 0,6.498 0,0 z"
             style="fill:none;stroke:#231f20;stroke-opacity:1;stroke-width:1;stroke-linecap:butt;stroke-linejoin:miter;stroke-miterlimit:10;stroke-dasharray:none"
             id="path3106" /></g><g
           id="g3108"
           transform="translate(103,174)"><path
             d="m 0,0 c 0,-6.498 -5.268,-11.765 -11.765,-11.765 -6.498,0 -11.765,5.267 -11.765,11.765 0,6.498 5.267,11.766 11.765,11.766 C -5.268,11.766 0,6.498 0,0 z"
             style="fill:none;stroke:#231f20;stroke-opacity:1;stroke-width:1;stroke-linecap:butt;stroke-linejoin:miter;stroke-miterlimit:10;stroke-dasharray:none"
             id="path3110" /></g><g
           id="g3112"
           transform="translate(154.6523,230.2344)"><path
             d="m 0,0 c 0,-6.498 -5.268,-11.765 -11.765,-11.765 -6.498,0 -11.765,5.267 -11.765,11.765 0,6.498 5.267,11.766 11.765,11.766 C -5.268,11.766 0,6.498 0,0 z"
             style="fill:none;stroke:#231f20;stroke-opacity:1;stroke-width:1;stroke-linecap:butt;stroke-linejoin:miter;stroke-miterlimit:10;stroke-dasharray:none"
             id="path3114" /></g><g
           id="g3116"
           transform="translate(258.5732,230.2344)"><path
             d="m 0,0 c 0,-6.498 -5.268,-11.765 -11.765,-11.765 -6.498,0 -11.765,5.267 -11.765,11.765 0,6.498 5.267,11.766 11.765,11.766 C -5.268,11.766 0,6.498 0,0 z"
             style="fill:none;stroke:#231f20;stroke-opacity:1;stroke-width:1;stroke-linecap:butt;stroke-linejoin:miter;stroke-miterlimit:10;stroke-dasharray:none"
             id="path3118" /></g><g
           id="g3120"
           transform="translate(258.5732,174)"><path
             d="m 0,0 c 0,-6.498 -5.268,-11.765 -11.765,-11.765 -6.498,0 -11.765,5.267 -11.765,11.765 0,6.498 5.267,11.766 11.765,11.766 C -5.268,11.766 0,6.498 0,0 z"
             style="fill:none;stroke:#231f20;stroke-opacity:1;stroke-width:1;stroke-linecap:butt;stroke-linejoin:miter;stroke-miterlimit:10;stroke-dasharray:none"
             id="path3122" /></g><g
           id="g3124"
           transform="translate(256.5728,106.4097)"><path
             d="m 0,0 c 0,-5.393 -4.372,-9.765 -9.766,-9.765 -5.393,0 -9.764,4.372 -9.764,9.765 0,5.394 4.371,9.766 9.764,9.766 C -4.372,9.766 0,5.394 0,0 z"
             style="fill:none;stroke:#231f20;stroke-opacity:1;stroke-width:1;stroke-linecap:butt;stroke-linejoin:miter;stroke-miterlimit:10;stroke-dasharray:none"
             id="path3126" /></g><g
           id="g3128"
           transform="translate(260.5728,106.4097)"><path
             d="m 0,0 c 0,-7.602 -6.163,-13.765 -13.766,-13.765 -7.602,0 -13.764,6.163 -13.764,13.765 0,7.603 6.162,13.766 13.764,13.766 C -6.163,13.766 0,7.603 0,0 z"
             style="fill:none;stroke:#231f20;stroke-opacity:1;stroke-width:1;stroke-linecap:butt;stroke-linejoin:miter;stroke-miterlimit:10;stroke-dasharray:none"
             id="path3130" /></g><g
           id="g3132"
           transform="translate(211.7324,49.7646)"><path
             d="m 0,0 c 0,-5.393 -4.372,-9.765 -9.766,-9.765 -5.393,0 -9.764,4.372 -9.764,9.765 0,5.394 4.371,9.766 9.764,9.766 C -4.372,9.766 0,5.394 0,0 z"
             style="fill:none;stroke:#231f20;stroke-opacity:1;stroke-width:1;stroke-linecap:butt;stroke-linejoin:miter;stroke-miterlimit:10;stroke-dasharray:none"
             id="path3134" /></g><g
           id="g3136"
           transform="translate(215.7324,49.7646)"><path
             d="m 0,0 c 0,-7.602 -6.163,-13.765 -13.766,-13.765 -7.602,0 -13.764,6.163 -13.764,13.765 0,7.603 6.162,13.766 13.764,13.766 C -6.163,13.766 0,7.603 0,0 z"
             style="fill:none;stroke:#231f20;stroke-opacity:1;stroke-width:1;stroke-linecap:butt;stroke-linejoin:miter;stroke-miterlimit:10;stroke-dasharray:none"
             id="path3138" /></g><g
           id="g3140"
           transform="translate(299.6309,49.7646)"><path
             d="m 0,0 c 0,-5.393 -4.373,-9.765 -9.766,-9.765 -5.394,0 -9.765,4.372 -9.765,9.765 0,5.394 4.371,9.766 9.765,9.766 C -4.373,9.766 0,5.394 0,0 z"
             style="fill:none;stroke:#231f20;stroke-opacity:1;stroke-width:1;stroke-linecap:butt;stroke-linejoin:miter;stroke-miterlimit:10;stroke-dasharray:none"
             id="path3142" /></g><g
           id="g3144"
           transform="translate(303.6309,49.7646)"><path
             d="m 0,0 c 0,-7.602 -6.164,-13.765 -13.766,-13.765 -7.603,0 -13.765,6.163 -13.765,13.765 0,7.603 6.162,13.766 13.765,13.766 C -6.164,13.766 0,7.603 0,0 z"
             style="fill:none;stroke:#231f20;stroke-opacity:1;stroke-width:1;stroke-linecap:butt;stroke-linejoin:miter;stroke-miterlimit:10;stroke-dasharray:none"
             id="path3146" /></g><g
           id="g3148"
           transform="translate(54.353,106.4097)"><path
             d="m 0,0 c 0,-5.393 -4.372,-9.765 -9.766,-9.765 -5.393,0 -9.764,4.372 -9.764,9.765 0,5.394 4.371,9.766 9.764,9.766 C -4.372,9.766 0,5.394 0,0 z"
             style="fill:none;stroke:#231f20;stroke-opacity:1;stroke-width:1;stroke-linecap:butt;stroke-linejoin:miter;stroke-miterlimit:10;stroke-dasharray:none"
             id="path3150" /></g><g
           id="g3152"
           transform="translate(58.353,106.4097)"><path
             d="m 0,0 c 0,-7.602 -6.163,-13.765 -13.766,-13.765 -7.602,0 -13.764,6.163 -13.764,13.765 0,7.603 6.162,13.766 13.764,13.766 C -6.163,13.766 0,7.603 0,0 z"
             style="fill:none;stroke:#231f20;stroke-opacity:1;stroke-width:1;stroke-linecap:butt;stroke-linejoin:miter;stroke-miterlimit:10;stroke-dasharray:none"
             id="path3154" /></g><g
           id="g3156"
           transform="translate(142.2515,106.4097)"><path
             d="m 0,0 c 0,-5.393 -4.373,-9.765 -9.766,-9.765 -5.394,0 -9.765,4.372 -9.765,9.765 0,5.394 4.371,9.766 9.765,9.766 C -4.373,9.766 0,5.394 0,0 z"
             style="fill:none;stroke:#231f20;stroke-opacity:1;stroke-width:1;stroke-linecap:butt;stroke-linejoin:miter;stroke-miterlimit:10;stroke-dasharray:none"
             id="path3158" /></g><g
           id="g3160"
           transform="translate(146.2515,106.4097)"><path
             d="m 0,0 c 0,-7.602 -6.164,-13.765 -13.766,-13.765 -7.603,0 -13.765,6.163 -13.765,13.765 0,7.603 6.162,13.766 13.765,13.766 C -6.164,13.766 0,7.603 0,0 z"
             style="fill:none;stroke:#231f20;stroke-opacity:1;stroke-width:1;stroke-linecap:butt;stroke-linejoin:miter;stroke-miterlimit:10;stroke-dasharray:none"
             id="path3162" /></g></g></g></g></svg>