<?xml version="1.0" encoding="UTF-8" standalone="no"?>
<!-- Created with Inkscape (http://www.inkscape.org/) -->

<svg
   xmlns:dc="http://purl.org/dc/elements/1.1/"
   xmlns:cc="http://creativecommons.org/ns#"
   xmlns:rdf="http://www.w3.org/1999/02/22-rdf-syntax-ns#"
   xmlns:svg="http://www.w3.org/2000/svg"
   xmlns="http://www.w3.org/2000/svg"
   xmlns:sodipodi="http://sodipodi.sourceforge.net/DTD/sodipodi-0.dtd"
   xmlns:inkscape="http://www.inkscape.org/namespaces/inkscape"
   id="svg3996"
   version="1.1"
   inkscape:version="0.48.3.1 r9886"
   width="625"
   height="500"
   xml:space="preserve"
   sodipodi:docname="xfactor-f1.pdf"><metadata
     id="metadata4002"><rdf:RDF><cc:Work
         rdf:about=""><dc:format>image/svg+xml</dc:format><dc:type
           rdf:resource="http://purl.org/dc/dcmitype/StillImage" /><dc:title></dc:title></cc:Work></rdf:RDF></metadata><defs
     id="defs4000"><clipPath
       clipPathUnits="userSpaceOnUse"
       id="clipPath4012"><path
         d="M 0,0 500,0 500,400 0,400 0,0 z"
         id="path4014" /></clipPath><clipPath
       clipPathUnits="userSpaceOnUse"
       id="clipPath4030"><path
         d="M 0,0 500,0 500,400 0,400 0,0 z"
         id="path4032" /></clipPath><clipPath
       clipPathUnits="userSpaceOnUse"
       id="clipPath4180"><path
         d="m 43.29,77.87 444.71,0 0,287.99 -444.71,0 0,-287.99 z"
         id="path4182" /></clipPath></defs><sodipodi:namedview
     pagecolor="#ffffff"
     bordercolor="#666666"
     borderopacity="1"
     objecttolerance="10"
     gridtolerance="10"
     guidetolerance="10"
     inkscape:pageopacity="0"
     inkscape:pageshadow="2"
     inkscape:window-width="640"
     inkscape:window-height="480"
     id="namedview3998"
     showgrid="false"
     inkscape:zoom="0.472"
     inkscape:cx="312.5"
     inkscape:cy="250"
     inkscape:window-x="476"
     inkscape:window-y="198"
     inkscape:window-maximized="0"
     inkscape:current-layer="g4004" /><g
     id="g4004"
     inkscape:groupmode="layer"
     inkscape:label="xfactor-f1"
     transform="matrix(1.25,0,0,-1.25,0,500)"><path
       d="M 0,0 500,0 500,400 0,400 0,0 z"
       style="fill:#ffffff;fill-opacity:1;fill-rule:nonzero;stroke:none"
       id="path4006" /><g
       id="g4008"><g
         id="g4010"
         clip-path="url(#clipPath4012)"><text
           transform="matrix(1,0,0,-1,197.46,378.9902)"
           id="text4016"><tspan
             style="fill:#808080;fill-opacity:1;fill-rule:nonzero;stroke:none;font-family:Helvetica;font-variant:normal;font-weight:bold;font-stretch:normal;font-size:20;writing-mode:lr;-inkscape-font-specification:Helvetica-Bold"
             x="0 11.94 19.44 31.38 43.32 50.82 63.88 72.48 79.98 86.38 93.88"
             y="0"
             sodipodi:role="line"
             id="tspan4018">xfactor: f1</tspan></text>
</g></g><path
       d="m 135.16,23.48 229.68,0 0,-22.48 -229.68,0 0,22.48 z"
       style="fill:#ffffff;fill-opacity:1;fill-rule:nonzero;stroke:none"
       id="path4020" /><g
       id="g4022"
       transform="translate(135.6602,22.9805)"><path
         d="M 0,0 228.68,0"
         style="fill:none;stroke:#000000;stroke-opacity:1;stroke-width:1;stroke-linecap:square;stroke-linejoin:miter;stroke-miterlimit:10;stroke-dasharray:none"
         id="path4024" /></g><g
       id="g4026"><g
         id="g4028"
         clip-path="url(#clipPath4030)"><g
           id="g4034"
           transform="translate(135.6602,1.5)"><path
             d="M 0,0 228.68,0"
             style="fill:none;stroke:#000000;stroke-opacity:1;stroke-width:1;stroke-linecap:square;stroke-linejoin:miter;stroke-miterlimit:10;stroke-dasharray:none"
             id="path4036" /></g><g
           id="g4038"
           transform="translate(135.6602,1.5)"><path
             d="M 0,0 0,21.48"
             style="fill:none;stroke:#000000;stroke-opacity:1;stroke-width:1;stroke-linecap:square;stroke-linejoin:miter;stroke-miterlimit:10;stroke-dasharray:none"
             id="path4040" /></g><g
           id="g4042"
           transform="translate(364.3398,1.5)"><path
             d="M 0,0 0,21.48"
             style="fill:none;stroke:#000000;stroke-opacity:1;stroke-width:1;stroke-linecap:square;stroke-linejoin:miter;stroke-miterlimit:10;stroke-dasharray:none"
             id="path4044" /></g></g></g><path
       d="m 139.16,16.24 8,0 0,-8 -8,0 0,8 z"
       style="fill:#ff5555;fill-opacity:1;fill-rule:nonzero;stroke:none"
       id="path4046" /><text
       transform="matrix(1,0,0,-1,151.1602,7.4805)"
       id="text4048"><tspan
         style="fill:#404040;fill-opacity:1;fill-rule:nonzero;stroke:none;font-family:Helvetica;font-variant:normal;font-weight:normal;font-stretch:normal;font-size:12;writing-mode:lr;-inkscape-font-specification:Helvetica"
         x="0 6.444 12.888 18.672 25.116 27.552 29.988 36.432"
         y="0"
         sodipodi:role="line"
         id="tspan4050">baseline</tspan></text>
<path
       d="m 200.25,16.24 8,0 0,-8 -8,0 0,8 z"
       style="fill:#5555ff;fill-opacity:1;fill-rule:nonzero;stroke:none"
       id="path4052" /><text
       transform="matrix(1,0,0,-1,212.25,7.4805)"
       id="text4054"><tspan
         style="fill:#404040;fill-opacity:1;fill-rule:nonzero;stroke:none;font-family:Helvetica;font-variant:normal;font-weight:normal;font-stretch:normal;font-size:12;writing-mode:lr;-inkscape-font-specification:Helvetica"
         x="0 5.844 8.352 18.192 24.708 27.216"
         y="0"
         sodipodi:role="line"
         id="tspan4056">simple</tspan></text>
<path
       d="m 252.12,16.24 8,0 0,-8 -8,0 0,8 z"
       style="fill:#55ff55;fill-opacity:1;fill-rule:nonzero;stroke:none"
       id="path4058" /><text
       transform="matrix(1,0,0,-1,264.1201,7.4805)"
       id="text4060"><tspan
         style="fill:#404040;fill-opacity:1;fill-rule:nonzero;stroke:none;font-family:Helvetica;font-variant:normal;font-weight:normal;font-stretch:normal;font-size:12;writing-mode:lr;-inkscape-font-specification:Helvetica"
         x="0 5.856 12.384 22.236 28.764 31.284 37.812"
         y="0"
         sodipodi:role="line"
         id="tspan4062">complex</tspan></text>
<path
       d="m 313.88,16.24 8,0 0,-8 -8,0 0,8 z"
       style="fill:#ffff55;fill-opacity:1;fill-rule:nonzero;stroke:none"
       id="path4064" /><text
       transform="matrix(1,0,0,-1,325.8799,7.4805)"
       id="text4066"><tspan
         style="fill:#404040;fill-opacity:1;fill-rule:nonzero;stroke:none;font-family:Helvetica;font-variant:normal;font-weight:normal;font-stretch:normal;font-size:12;writing-mode:lr;-inkscape-font-specification:Helvetica"
         x="0 6.6 13.2 19.8 22.392 28.992"
         y="0"
         sodipodi:role="line"
         id="tspan4068">duplex</tspan></text>
<path
       d="m 43.29,365.86 444.71,0 0,-287.99 -444.71,0 0,287.99 z"
       style="fill:#ebebeb;fill-opacity:1;fill-rule:nonzero;stroke:none"
       id="path4070" /><g
       id="g4072"
       transform="translate(117.3999,73.8701)"><path
         d="M 0,0 0,0"
         style="fill:none;stroke:#808080;stroke-opacity:1;stroke-width:1;stroke-linecap:square;stroke-linejoin:miter;stroke-miterlimit:10;stroke-dasharray:none"
         id="path4074" /></g><g
       id="g4076"
       transform="translate(117.3999,73.8701)"><path
         d="M 0,0 0,-2"
         style="fill:none;stroke:#808080;stroke-opacity:1;stroke-width:1;stroke-linecap:square;stroke-linejoin:miter;stroke-miterlimit:10;stroke-dasharray:none"
         id="path4078" /></g><g
       id="g4080"
       transform="translate(265.6396,73.8701)"><path
         d="M 0,0 0,0"
         style="fill:none;stroke:#808080;stroke-opacity:1;stroke-width:1;stroke-linecap:square;stroke-linejoin:miter;stroke-miterlimit:10;stroke-dasharray:none"
         id="path4082" /></g><g
       id="g4084"
       transform="translate(265.6396,73.8701)"><path
         d="M 0,0 0,-2"
         style="fill:none;stroke:#808080;stroke-opacity:1;stroke-width:1;stroke-linecap:square;stroke-linejoin:miter;stroke-miterlimit:10;stroke-dasharray:none"
         id="path4086" /></g><g
       id="g4088"
       transform="translate(413.8799,73.8701)"><path
         d="M 0,0 0,0"
         style="fill:none;stroke:#808080;stroke-opacity:1;stroke-width:1;stroke-linecap:square;stroke-linejoin:miter;stroke-miterlimit:10;stroke-dasharray:none"
         id="path4090" /></g><g
       id="g4092"
       transform="translate(413.8799,73.8701)"><path
         d="M 0,0 0,-2"
         style="fill:none;stroke:#808080;stroke-opacity:1;stroke-width:1;stroke-linecap:square;stroke-linejoin:miter;stroke-miterlimit:10;stroke-dasharray:none"
         id="path4094" /></g><text
       transform="matrix(1,0,0,-1,106.0298,55.8604)"
       id="text4096"><tspan
         style="fill:#808080;fill-opacity:1;fill-rule:nonzero;stroke:none;font-family:Helvetica;font-variant:normal;font-weight:normal;font-stretch:normal;font-size:12;writing-mode:lr;-inkscape-font-specification:Helvetica"
         x="0 7.032 13.416 148.716 154.944 162.504 296.544 303.852 310.5"
         y="0"
         sodipodi:role="line"
         id="tspan4098">NEGPOSNEU</tspan></text>
<text
       transform="matrix(1,0,0,-1,201.6401,32.3799)"
       id="text4100"><tspan
         style="fill:#808080;fill-opacity:1;fill-rule:nonzero;stroke:none;font-family:Helvetica;font-variant:normal;font-weight:bold;font-stretch:normal;font-size:14;writing-mode:lr;-inkscape-font-specification:Helvetica-Bold"
         x="0 10.276 19.012 26.964 35.7 48.314 56.266 65.002 69.846 73.92 84.196 88.27 96.222 104.174 112.126 120.078"
         y="0"
         sodipodi:role="line"
         id="tspan4102">Document Classes</tspan></text>
<text
       transform="matrix(1,0,0,-1,16.5498,73.0996)"
       id="text4104"><tspan
         style="fill:#808080;fill-opacity:1;fill-rule:nonzero;stroke:none;font-family:Helvetica;font-variant:normal;font-weight:normal;font-stretch:normal;font-size:12;writing-mode:lr;-inkscape-font-specification:Helvetica"
         x="0 6.696 10.056"
         y="0"
         sodipodi:role="line"
         id="tspan4106">0.0</tspan></text>
<g
       id="g4108"
       transform="translate(37.29,77.8701)"><path
         d="M 0,0 2,0"
         style="fill:none;stroke:#808080;stroke-opacity:1;stroke-width:1;stroke-linecap:square;stroke-linejoin:miter;stroke-miterlimit:10;stroke-dasharray:none"
         id="path4110" /></g><text
       transform="matrix(1,0,0,-1,16.5498,106.2402)"
       id="text4112"><tspan
         style="fill:#808080;fill-opacity:1;fill-rule:nonzero;stroke:none;font-family:Helvetica;font-variant:normal;font-weight:normal;font-stretch:normal;font-size:12;writing-mode:lr;-inkscape-font-specification:Helvetica"
         x="0 6.696 10.056"
         y="0"
         sodipodi:role="line"
         id="tspan4114">0.1</tspan></text>
<g
       id="g4116"
       transform="translate(37.29,111)"><path
         d="M 0,0 2,0"
         style="fill:none;stroke:#808080;stroke-opacity:1;stroke-width:1;stroke-linecap:square;stroke-linejoin:miter;stroke-miterlimit:10;stroke-dasharray:none"
         id="path4118" /></g><text
       transform="matrix(1,0,0,-1,16.5498,139.3799)"
       id="text4120"><tspan
         style="fill:#808080;fill-opacity:1;fill-rule:nonzero;stroke:none;font-family:Helvetica;font-variant:normal;font-weight:normal;font-stretch:normal;font-size:12;writing-mode:lr;-inkscape-font-specification:Helvetica"
         x="0 6.696 10.056"
         y="0"
         sodipodi:role="line"
         id="tspan4122">0.2</tspan></text>
<g
       id="g4124"
       transform="translate(37.29,144.1396)"><path
         d="M 0,0 2,0"
         style="fill:none;stroke:#808080;stroke-opacity:1;stroke-width:1;stroke-linecap:square;stroke-linejoin:miter;stroke-miterlimit:10;stroke-dasharray:none"
         id="path4126" /></g><text
       transform="matrix(1,0,0,-1,16.5498,172.5098)"
       id="text4128"><tspan
         style="fill:#808080;fill-opacity:1;fill-rule:nonzero;stroke:none;font-family:Helvetica;font-variant:normal;font-weight:normal;font-stretch:normal;font-size:12;writing-mode:lr;-inkscape-font-specification:Helvetica"
         x="0 6.696 10.056"
         y="0"
         sodipodi:role="line"
         id="tspan4130">0.3</tspan></text>
<g
       id="g4132"
       transform="translate(37.29,177.2695)"><path
         d="M 0,0 2,0"
         style="fill:none;stroke:#808080;stroke-opacity:1;stroke-width:1;stroke-linecap:square;stroke-linejoin:miter;stroke-miterlimit:10;stroke-dasharray:none"
         id="path4134" /></g><text
       transform="matrix(1,0,0,-1,16.5498,205.6499)"
       id="text4136"><tspan
         style="fill:#808080;fill-opacity:1;fill-rule:nonzero;stroke:none;font-family:Helvetica;font-variant:normal;font-weight:normal;font-stretch:normal;font-size:12;writing-mode:lr;-inkscape-font-specification:Helvetica"
         x="0 6.696 10.056"
         y="0"
         sodipodi:role="line"
         id="tspan4138">0.4</tspan></text>
<g
       id="g4140"
       transform="translate(37.29,210.4102)"><path
         d="M 0,0 2,0"
         style="fill:none;stroke:#808080;stroke-opacity:1;stroke-width:1;stroke-linecap:square;stroke-linejoin:miter;stroke-miterlimit:10;stroke-dasharray:none"
         id="path4142" /></g><text
       transform="matrix(1,0,0,-1,16.5498,238.7798)"
       id="text4144"><tspan
         style="fill:#808080;fill-opacity:1;fill-rule:nonzero;stroke:none;font-family:Helvetica;font-variant:normal;font-weight:normal;font-stretch:normal;font-size:12;writing-mode:lr;-inkscape-font-specification:Helvetica"
         x="0 6.696 10.056"
         y="0"
         sodipodi:role="line"
         id="tspan4146">0.5</tspan></text>
<g
       id="g4148"
       transform="translate(37.29,243.5498)"><path
         d="M 0,0 2,0"
         style="fill:none;stroke:#808080;stroke-opacity:1;stroke-width:1;stroke-linecap:square;stroke-linejoin:miter;stroke-miterlimit:10;stroke-dasharray:none"
         id="path4150" /></g><text
       transform="matrix(1,0,0,-1,16.5498,271.9199)"
       id="text4152"><tspan
         style="fill:#808080;fill-opacity:1;fill-rule:nonzero;stroke:none;font-family:Helvetica;font-variant:normal;font-weight:normal;font-stretch:normal;font-size:12;writing-mode:lr;-inkscape-font-specification:Helvetica"
         x="0 6.696 10.056"
         y="0"
         sodipodi:role="line"
         id="tspan4154">0.6</tspan></text>
<g
       id="g4156"
       transform="translate(37.29,276.6802)"><path
         d="M 0,0 2,0"
         style="fill:none;stroke:#808080;stroke-opacity:1;stroke-width:1;stroke-linecap:square;stroke-linejoin:miter;stroke-miterlimit:10;stroke-dasharray:none"
         id="path4158" /></g><text
       transform="matrix(1,0,0,-1,16.5498,305.0498)"
       id="text4160"><tspan
         style="fill:#808080;fill-opacity:1;fill-rule:nonzero;stroke:none;font-family:Helvetica;font-variant:normal;font-weight:normal;font-stretch:normal;font-size:12;writing-mode:lr;-inkscape-font-specification:Helvetica"
         x="0 6.696 10.056"
         y="0"
         sodipodi:role="line"
         id="tspan4162">0.7</tspan></text>
<g
       id="g4164"
       transform="translate(37.29,309.8198)"><path
         d="M 0,0 2,0"
         style="fill:none;stroke:#808080;stroke-opacity:1;stroke-width:1;stroke-linecap:square;stroke-linejoin:miter;stroke-miterlimit:10;stroke-dasharray:none"
         id="path4166" /></g><text
       transform="matrix(1,0,0,-1,16.5498,338.1899)"
       id="text4168"><tspan
         style="fill:#808080;fill-opacity:1;fill-rule:nonzero;stroke:none;font-family:Helvetica;font-variant:normal;font-weight:normal;font-stretch:normal;font-size:12;writing-mode:lr;-inkscape-font-specification:Helvetica"
         x="0 6.696 10.056"
         y="0"
         sodipodi:role="line"
         id="tspan4170">0.8</tspan></text>
<g
       id="g4172"
       transform="translate(37.29,342.9502)"><path
         d="M 0,0 2,0"
         style="fill:none;stroke:#808080;stroke-opacity:1;stroke-width:1;stroke-linecap:square;stroke-linejoin:miter;stroke-miterlimit:10;stroke-dasharray:none"
         id="path4174" /></g><g
       id="g4176"><g
         id="g4178"
         clip-path="url(#clipPath4180)"><g
           id="g4184"
           transform="translate(43.29,77.8701)"><path
             d="M 0,0 444.71,0"
             style="fill:none;stroke:#ffffff;stroke-opacity:1;stroke-width:1;stroke-linecap:round;stroke-linejoin:round;stroke-miterlimit:10;stroke-dasharray:1,1;stroke-dashoffset:0"
             id="path4186" /></g><g
           id="g4188"
           transform="translate(43.29,111)"><path
             d="M 0,0 444.71,0"
             style="fill:none;stroke:#ffffff;stroke-opacity:1;stroke-width:1;stroke-linecap:round;stroke-linejoin:round;stroke-miterlimit:10;stroke-dasharray:1,1;stroke-dashoffset:0"
             id="path4190" /></g><g
           id="g4192"
           transform="translate(43.29,144.1396)"><path
             d="M 0,0 444.71,0"
             style="fill:none;stroke:#ffffff;stroke-opacity:1;stroke-width:1;stroke-linecap:round;stroke-linejoin:round;stroke-miterlimit:10;stroke-dasharray:1,1;stroke-dashoffset:0"
             id="path4194" /></g><g
           id="g4196"
           transform="translate(43.29,177.2695)"><path
             d="M 0,0 444.71,0"
             style="fill:none;stroke:#ffffff;stroke-opacity:1;stroke-width:1;stroke-linecap:round;stroke-linejoin:round;stroke-miterlimit:10;stroke-dasharray:1,1;stroke-dashoffset:0"
             id="path4198" /></g><g
           id="g4200"
           transform="translate(43.29,210.4102)"><path
             d="M 0,0 444.71,0"
             style="fill:none;stroke:#ffffff;stroke-opacity:1;stroke-width:1;stroke-linecap:round;stroke-linejoin:round;stroke-miterlimit:10;stroke-dasharray:1,1;stroke-dashoffset:0"
             id="path4202" /></g><g
           id="g4204"
           transform="translate(43.29,243.5498)"><path
             d="M 0,0 444.71,0"
             style="fill:none;stroke:#ffffff;stroke-opacity:1;stroke-width:1;stroke-linecap:round;stroke-linejoin:round;stroke-miterlimit:10;stroke-dasharray:1,1;stroke-dashoffset:0"
             id="path4206" /></g><g
           id="g4208"
           transform="translate(43.29,276.6802)"><path
             d="M 0,0 444.71,0"
             style="fill:none;stroke:#ffffff;stroke-opacity:1;stroke-width:1;stroke-linecap:round;stroke-linejoin:round;stroke-miterlimit:10;stroke-dasharray:1,1;stroke-dashoffset:0"
             id="path4210" /></g><g
           id="g4212"
           transform="translate(43.29,309.8198)"><path
             d="M 0,0 444.71,0"
             style="fill:none;stroke:#ffffff;stroke-opacity:1;stroke-width:1;stroke-linecap:round;stroke-linejoin:round;stroke-miterlimit:10;stroke-dasharray:1,1;stroke-dashoffset:0"
             id="path4214" /></g><g
           id="g4216"
           transform="translate(43.29,342.9502)"><path
             d="M 0,0 444.71,0"
             style="fill:none;stroke:#ffffff;stroke-opacity:1;stroke-width:1;stroke-linecap:round;stroke-linejoin:round;stroke-miterlimit:10;stroke-dasharray:1,1;stroke-dashoffset:0"
             id="path4218" /></g></g></g><path
       d="m 65.52,337.58 18.53,0 0,-259.71 -18.53,0 0,259.71 z"
       style="fill:#ff5555;fill-opacity:1;fill-rule:nonzero;stroke:none"
       id="path4220" /><path
       d="m 93.93,337.63 18.53,0 0,-259.76 -18.53,0 0,259.76 z"
       style="fill:#5555ff;fill-opacity:1;fill-rule:nonzero;stroke:none"
       id="path4222" /><path
       d="m 122.35,337.59 18.53,0 0,-259.72 -18.53,0 0,259.72 z"
       style="fill:#55ff55;fill-opacity:1;fill-rule:nonzero;stroke:none"
       id="path4224" /><path
       d="m 150.76,337.59 18.53,0 0,-259.72 -18.53,0 0,259.72 z"
       style="fill:#ffff55;fill-opacity:1;fill-rule:nonzero;stroke:none"
       id="path4226" /><path
       d="m 213.76,351.88 18.53,0 0,-274.01 -18.53,0 0,274.01 z"
       style="fill:#ff5555;fill-opacity:1;fill-rule:nonzero;stroke:none"
       id="path4228" /><path
       d="m 242.17,351.9 18.53,0 0,-274.03 -18.53,0 0,274.03 z"
       style="fill:#5555ff;fill-opacity:1;fill-rule:nonzero;stroke:none"
       id="path4230" /><path
       d="m 270.58,352.15 18.53,0 0,-274.28 -18.53,0 0,274.28 z"
       style="fill:#55ff55;fill-opacity:1;fill-rule:nonzero;stroke:none"
       id="path4232" /><path
       d="m 299,352.1 18.53,0 0,-274.23 -18.53,0 0,274.23 z"
       style="fill:#ffff55;fill-opacity:1;fill-rule:nonzero;stroke:none"
       id="path4234" /><path
       d="m 362,161.64 18.53,0 0,-83.77 -18.53,0 0,83.77 z"
       style="fill:#ff5555;fill-opacity:1;fill-rule:nonzero;stroke:none"
       id="path4236" /><path
       d="m 390.41,161.31 18.53,0 0,-83.439 -18.53,0 0,83.439 z"
       style="fill:#5555ff;fill-opacity:1;fill-rule:nonzero;stroke:none"
       id="path4238" /><path
       d="m 418.82,156.35 18.529,0 0,-78.479 -18.529,0 0,78.479 z"
       style="fill:#55ff55;fill-opacity:1;fill-rule:nonzero;stroke:none"
       id="path4240" /><path
       d="m 447.23,158.34 18.529,0 0,-80.47 -18.529,0 0,80.47 z"
       style="fill:#ffff55;fill-opacity:1;fill-rule:nonzero;stroke:none"
       id="path4242" /></g></svg>